G04 #@! TF.FileFunction,Soldermask,Bot*
%FSLAX46Y46*%
G04 Gerber Fmt 4.6, Leading zero omitted, Abs format (unit mm)*
G04 Created by KiCad (PCBNEW 4.0.2-stable) date Monday, July 02, 2018 'PMt' 02:59:00 PM*
%MOMM*%
G01*
G04 APERTURE LIST*
%ADD10C,0.025400*%
G04 APERTURE END LIST*
D10*
G36*
X132164153Y-123659333D02*
X132318068Y-123690927D01*
X132462914Y-123751815D01*
X132593175Y-123839677D01*
X132703892Y-123951170D01*
X132747366Y-124016604D01*
X132790841Y-124082039D01*
X132850716Y-124227307D01*
X132881235Y-124381438D01*
X132878729Y-124560903D01*
X132878709Y-124560991D01*
X132878709Y-124560993D01*
X132843919Y-124714120D01*
X132780011Y-124857660D01*
X132780010Y-124857661D01*
X132689439Y-124986054D01*
X132689437Y-124986056D01*
X132575655Y-125094409D01*
X132442994Y-125178599D01*
X132442990Y-125178600D01*
X132442991Y-125178600D01*
X132321628Y-125225674D01*
X132296498Y-125235421D01*
X132141765Y-125262705D01*
X131990993Y-125259546D01*
X131984676Y-125259414D01*
X131831218Y-125225674D01*
X131759227Y-125194222D01*
X131687237Y-125162770D01*
X131687235Y-125162769D01*
X131558214Y-125073097D01*
X131449066Y-124960072D01*
X131363951Y-124827999D01*
X131363950Y-124827998D01*
X131306110Y-124681909D01*
X131277746Y-124527370D01*
X131278860Y-124447651D01*
X131279940Y-124370259D01*
X131279941Y-124370254D01*
X131312606Y-124216571D01*
X131374505Y-124072152D01*
X131463274Y-123942508D01*
X131463275Y-123942506D01*
X131575536Y-123832573D01*
X131575537Y-123832572D01*
X131707013Y-123746537D01*
X131852691Y-123687679D01*
X131852690Y-123687679D01*
X131852693Y-123687678D01*
X132007034Y-123658236D01*
X132164153Y-123659333D01*
X132164153Y-123659333D01*
G37*
G36*
X134704153Y-123659333D02*
X134858068Y-123690927D01*
X135002914Y-123751815D01*
X135133175Y-123839677D01*
X135243892Y-123951170D01*
X135287366Y-124016604D01*
X135330841Y-124082039D01*
X135390716Y-124227307D01*
X135421235Y-124381438D01*
X135418729Y-124560903D01*
X135418709Y-124560991D01*
X135418709Y-124560993D01*
X135383919Y-124714120D01*
X135320011Y-124857660D01*
X135320010Y-124857661D01*
X135229439Y-124986054D01*
X135229437Y-124986056D01*
X135115655Y-125094409D01*
X134982994Y-125178599D01*
X134982990Y-125178600D01*
X134982991Y-125178600D01*
X134861628Y-125225674D01*
X134836498Y-125235421D01*
X134681765Y-125262705D01*
X134530993Y-125259546D01*
X134524676Y-125259414D01*
X134371218Y-125225674D01*
X134299227Y-125194222D01*
X134227237Y-125162770D01*
X134227235Y-125162769D01*
X134098214Y-125073097D01*
X133989066Y-124960072D01*
X133903951Y-124827999D01*
X133903950Y-124827998D01*
X133846110Y-124681909D01*
X133817746Y-124527370D01*
X133818860Y-124447651D01*
X133819940Y-124370259D01*
X133819941Y-124370254D01*
X133852606Y-124216571D01*
X133914505Y-124072152D01*
X134003274Y-123942508D01*
X134003275Y-123942506D01*
X134115536Y-123832573D01*
X134115537Y-123832572D01*
X134247013Y-123746537D01*
X134392691Y-123687679D01*
X134392690Y-123687679D01*
X134392693Y-123687678D01*
X134547034Y-123658236D01*
X134704153Y-123659333D01*
X134704153Y-123659333D01*
G37*
G36*
X137244153Y-123659333D02*
X137398068Y-123690927D01*
X137542914Y-123751815D01*
X137673175Y-123839677D01*
X137783892Y-123951170D01*
X137827366Y-124016604D01*
X137870841Y-124082039D01*
X137930716Y-124227307D01*
X137961235Y-124381438D01*
X137958729Y-124560903D01*
X137958709Y-124560991D01*
X137958709Y-124560993D01*
X137923919Y-124714120D01*
X137860011Y-124857660D01*
X137860010Y-124857661D01*
X137769439Y-124986054D01*
X137769437Y-124986056D01*
X137655655Y-125094409D01*
X137522994Y-125178599D01*
X137522990Y-125178600D01*
X137522991Y-125178600D01*
X137401628Y-125225674D01*
X137376498Y-125235421D01*
X137221765Y-125262705D01*
X137070993Y-125259546D01*
X137064676Y-125259414D01*
X136911218Y-125225674D01*
X136839227Y-125194222D01*
X136767237Y-125162770D01*
X136767235Y-125162769D01*
X136638214Y-125073097D01*
X136529066Y-124960072D01*
X136443951Y-124827999D01*
X136443950Y-124827998D01*
X136386110Y-124681909D01*
X136357746Y-124527370D01*
X136358860Y-124447651D01*
X136359940Y-124370259D01*
X136359941Y-124370254D01*
X136392606Y-124216571D01*
X136454505Y-124072152D01*
X136543274Y-123942508D01*
X136543275Y-123942506D01*
X136655536Y-123832573D01*
X136655537Y-123832572D01*
X136787013Y-123746537D01*
X136932691Y-123687679D01*
X136932690Y-123687679D01*
X136932693Y-123687678D01*
X137087034Y-123658236D01*
X137244153Y-123659333D01*
X137244153Y-123659333D01*
G37*
G36*
X139784153Y-123659333D02*
X139938068Y-123690927D01*
X140082914Y-123751815D01*
X140213175Y-123839677D01*
X140323892Y-123951170D01*
X140367366Y-124016604D01*
X140410841Y-124082039D01*
X140470716Y-124227307D01*
X140501235Y-124381438D01*
X140498729Y-124560903D01*
X140498709Y-124560991D01*
X140498709Y-124560993D01*
X140463919Y-124714120D01*
X140400011Y-124857660D01*
X140400010Y-124857661D01*
X140309439Y-124986054D01*
X140309437Y-124986056D01*
X140195655Y-125094409D01*
X140062994Y-125178599D01*
X140062990Y-125178600D01*
X140062991Y-125178600D01*
X139941628Y-125225674D01*
X139916498Y-125235421D01*
X139761765Y-125262705D01*
X139610993Y-125259546D01*
X139604676Y-125259414D01*
X139451218Y-125225674D01*
X139379227Y-125194222D01*
X139307237Y-125162770D01*
X139307235Y-125162769D01*
X139178214Y-125073097D01*
X139069066Y-124960072D01*
X138983951Y-124827999D01*
X138983950Y-124827998D01*
X138926110Y-124681909D01*
X138897746Y-124527370D01*
X138898860Y-124447651D01*
X138899940Y-124370259D01*
X138899941Y-124370254D01*
X138932606Y-124216571D01*
X138994505Y-124072152D01*
X139083274Y-123942508D01*
X139083275Y-123942506D01*
X139195536Y-123832573D01*
X139195537Y-123832572D01*
X139327013Y-123746537D01*
X139472691Y-123687679D01*
X139472690Y-123687679D01*
X139472693Y-123687678D01*
X139627034Y-123658236D01*
X139784153Y-123659333D01*
X139784153Y-123659333D01*
G37*
G36*
X130341200Y-125261200D02*
X128738800Y-125261200D01*
X128738800Y-123658800D01*
X130341200Y-123658800D01*
X130341200Y-125261200D01*
X130341200Y-125261200D01*
G37*
G36*
X139784153Y-121119333D02*
X139938068Y-121150927D01*
X140075656Y-121208764D01*
X140082914Y-121211815D01*
X140213175Y-121299677D01*
X140323892Y-121411170D01*
X140367366Y-121476604D01*
X140410841Y-121542039D01*
X140470716Y-121687307D01*
X140501235Y-121841438D01*
X140498729Y-122020903D01*
X140498709Y-122020991D01*
X140498709Y-122020993D01*
X140463919Y-122174120D01*
X140400011Y-122317660D01*
X140400010Y-122317661D01*
X140309439Y-122446054D01*
X140309437Y-122446056D01*
X140195655Y-122554409D01*
X140062994Y-122638599D01*
X140062990Y-122638600D01*
X140062991Y-122638600D01*
X139922738Y-122693001D01*
X139916498Y-122695421D01*
X139761765Y-122722705D01*
X139610993Y-122719546D01*
X139604676Y-122719414D01*
X139451218Y-122685674D01*
X139379227Y-122654222D01*
X139307237Y-122622770D01*
X139307235Y-122622769D01*
X139178214Y-122533097D01*
X139069066Y-122420072D01*
X138983951Y-122287999D01*
X138983950Y-122287998D01*
X138926110Y-122141909D01*
X138897746Y-121987370D01*
X138899781Y-121841683D01*
X138899940Y-121830259D01*
X138899941Y-121830254D01*
X138932606Y-121676571D01*
X138994505Y-121532152D01*
X139035381Y-121472454D01*
X139083275Y-121402506D01*
X139195536Y-121292573D01*
X139195537Y-121292572D01*
X139318947Y-121211815D01*
X139327011Y-121206538D01*
X139472693Y-121147678D01*
X139627034Y-121118236D01*
X139784153Y-121119333D01*
X139784153Y-121119333D01*
G37*
G36*
X137244153Y-121119333D02*
X137398068Y-121150927D01*
X137535656Y-121208764D01*
X137542914Y-121211815D01*
X137673175Y-121299677D01*
X137783892Y-121411170D01*
X137827366Y-121476604D01*
X137870841Y-121542039D01*
X137930716Y-121687307D01*
X137961235Y-121841438D01*
X137958729Y-122020903D01*
X137958709Y-122020991D01*
X137958709Y-122020993D01*
X137923919Y-122174120D01*
X137860011Y-122317660D01*
X137860010Y-122317661D01*
X137769439Y-122446054D01*
X137769437Y-122446056D01*
X137655655Y-122554409D01*
X137522994Y-122638599D01*
X137522990Y-122638600D01*
X137522991Y-122638600D01*
X137382738Y-122693001D01*
X137376498Y-122695421D01*
X137221765Y-122722705D01*
X137070993Y-122719546D01*
X137064676Y-122719414D01*
X136911218Y-122685674D01*
X136839227Y-122654222D01*
X136767237Y-122622770D01*
X136767235Y-122622769D01*
X136638214Y-122533097D01*
X136529066Y-122420072D01*
X136443951Y-122287999D01*
X136443950Y-122287998D01*
X136386110Y-122141909D01*
X136357746Y-121987370D01*
X136359781Y-121841683D01*
X136359940Y-121830259D01*
X136359941Y-121830254D01*
X136392606Y-121676571D01*
X136454505Y-121532152D01*
X136495381Y-121472454D01*
X136543275Y-121402506D01*
X136655536Y-121292573D01*
X136655537Y-121292572D01*
X136778947Y-121211815D01*
X136787011Y-121206538D01*
X136932693Y-121147678D01*
X137087034Y-121118236D01*
X137244153Y-121119333D01*
X137244153Y-121119333D01*
G37*
G36*
X132164153Y-121119333D02*
X132318068Y-121150927D01*
X132455656Y-121208764D01*
X132462914Y-121211815D01*
X132593175Y-121299677D01*
X132703892Y-121411170D01*
X132747366Y-121476604D01*
X132790841Y-121542039D01*
X132850716Y-121687307D01*
X132881235Y-121841438D01*
X132878729Y-122020903D01*
X132878709Y-122020991D01*
X132878709Y-122020993D01*
X132843919Y-122174120D01*
X132780011Y-122317660D01*
X132780010Y-122317661D01*
X132689439Y-122446054D01*
X132689437Y-122446056D01*
X132575655Y-122554409D01*
X132442994Y-122638599D01*
X132442990Y-122638600D01*
X132442991Y-122638600D01*
X132302738Y-122693001D01*
X132296498Y-122695421D01*
X132141765Y-122722705D01*
X131990993Y-122719546D01*
X131984676Y-122719414D01*
X131831218Y-122685674D01*
X131759227Y-122654222D01*
X131687237Y-122622770D01*
X131687235Y-122622769D01*
X131558214Y-122533097D01*
X131449066Y-122420072D01*
X131363951Y-122287999D01*
X131363950Y-122287998D01*
X131306110Y-122141909D01*
X131277746Y-121987370D01*
X131279781Y-121841683D01*
X131279940Y-121830259D01*
X131279941Y-121830254D01*
X131312606Y-121676571D01*
X131374505Y-121532152D01*
X131415381Y-121472454D01*
X131463275Y-121402506D01*
X131575536Y-121292573D01*
X131575537Y-121292572D01*
X131698947Y-121211815D01*
X131707011Y-121206538D01*
X131852693Y-121147678D01*
X132007034Y-121118236D01*
X132164153Y-121119333D01*
X132164153Y-121119333D01*
G37*
G36*
X129624153Y-121119333D02*
X129778068Y-121150927D01*
X129915656Y-121208764D01*
X129922914Y-121211815D01*
X130053175Y-121299677D01*
X130163892Y-121411170D01*
X130207366Y-121476604D01*
X130250841Y-121542039D01*
X130310716Y-121687307D01*
X130341235Y-121841438D01*
X130338729Y-122020903D01*
X130338709Y-122020991D01*
X130338709Y-122020993D01*
X130303919Y-122174120D01*
X130240011Y-122317660D01*
X130240010Y-122317661D01*
X130149439Y-122446054D01*
X130149437Y-122446056D01*
X130035655Y-122554409D01*
X129902994Y-122638599D01*
X129902990Y-122638600D01*
X129902991Y-122638600D01*
X129762738Y-122693001D01*
X129756498Y-122695421D01*
X129601765Y-122722705D01*
X129450993Y-122719546D01*
X129444676Y-122719414D01*
X129291218Y-122685674D01*
X129219227Y-122654222D01*
X129147237Y-122622770D01*
X129147235Y-122622769D01*
X129018214Y-122533097D01*
X128909066Y-122420072D01*
X128823951Y-122287999D01*
X128823950Y-122287998D01*
X128766110Y-122141909D01*
X128737746Y-121987370D01*
X128739781Y-121841683D01*
X128739940Y-121830259D01*
X128739941Y-121830254D01*
X128772606Y-121676571D01*
X128834505Y-121532152D01*
X128875381Y-121472454D01*
X128923275Y-121402506D01*
X129035536Y-121292573D01*
X129035537Y-121292572D01*
X129158947Y-121211815D01*
X129167011Y-121206538D01*
X129312693Y-121147678D01*
X129467034Y-121118236D01*
X129624153Y-121119333D01*
X129624153Y-121119333D01*
G37*
G36*
X134626122Y-121121289D02*
X134703890Y-121121831D01*
X134780608Y-121137580D01*
X134857325Y-121153327D01*
X135001719Y-121214025D01*
X135131574Y-121301613D01*
X135241943Y-121412755D01*
X135328623Y-121543219D01*
X135388311Y-121688033D01*
X135418735Y-121841683D01*
X135416237Y-122020588D01*
X135416217Y-122020676D01*
X135416217Y-122020678D01*
X135416145Y-122020993D01*
X135381535Y-122173329D01*
X135351527Y-122240728D01*
X135317827Y-122316420D01*
X135261011Y-122396962D01*
X135227538Y-122444413D01*
X135227536Y-122444415D01*
X135114109Y-122552430D01*
X135052641Y-122591438D01*
X134981859Y-122636358D01*
X134835826Y-122693001D01*
X134681572Y-122720200D01*
X134681571Y-122720200D01*
X134524975Y-122716920D01*
X134427193Y-122695421D01*
X134371994Y-122683285D01*
X134228461Y-122620577D01*
X134099842Y-122531184D01*
X134099841Y-122531183D01*
X133991034Y-122418511D01*
X133906185Y-122286850D01*
X133848524Y-122141216D01*
X133820249Y-121987160D01*
X133822437Y-121830535D01*
X133855002Y-121677330D01*
X133916706Y-121533362D01*
X134005198Y-121404123D01*
X134117111Y-121294529D01*
X134248175Y-121208764D01*
X134393403Y-121150088D01*
X134547261Y-121120738D01*
X134626122Y-121121289D01*
X134626122Y-121121289D01*
G37*
M02*
