G04 #@! TF.FileFunction,Legend,Top*
%FSLAX46Y46*%
G04 Gerber Fmt 4.6, Leading zero omitted, Abs format (unit mm)*
G04 Created by KiCad (PCBNEW 4.0.2-stable) date Monday, July 02, 2018 'PMt' 02:59:00 PM*
%MOMM*%
G01*
G04 APERTURE LIST*
%ADD10C,0.025400*%
%ADD11C,0.050000*%
%ADD12C,0.200000*%
%ADD13C,0.150000*%
%ADD14C,0.152400*%
%ADD15C,0.101600*%
%ADD16C,0.127000*%
G04 APERTURE END LIST*
D10*
D11*
X129848720Y-125940357D02*
X129848720Y-126345119D01*
X129824911Y-126392738D01*
X129801101Y-126416548D01*
X129753482Y-126440357D01*
X129682054Y-126440357D01*
X129634435Y-126416548D01*
X129848720Y-126249881D02*
X129801101Y-126273690D01*
X129705863Y-126273690D01*
X129658244Y-126249881D01*
X129634435Y-126226071D01*
X129610625Y-126178452D01*
X129610625Y-126035595D01*
X129634435Y-125987976D01*
X129658244Y-125964167D01*
X129705863Y-125940357D01*
X129801101Y-125940357D01*
X129848720Y-125964167D01*
X130420149Y-126321310D02*
X130372530Y-126297500D01*
X130324911Y-126249881D01*
X130253482Y-126178452D01*
X130205863Y-126154643D01*
X130158244Y-126154643D01*
X130182054Y-126273690D02*
X130134435Y-126249881D01*
X130086816Y-126202262D01*
X130063006Y-126107024D01*
X130063006Y-125940357D01*
X130086816Y-125845119D01*
X130134435Y-125797500D01*
X130182054Y-125773690D01*
X130277292Y-125773690D01*
X130324911Y-125797500D01*
X130372530Y-125845119D01*
X130396339Y-125940357D01*
X130396339Y-126107024D01*
X130372530Y-126202262D01*
X130324911Y-126249881D01*
X130277292Y-126273690D01*
X130182054Y-126273690D01*
X130824911Y-125940357D02*
X130824911Y-126273690D01*
X130610626Y-125940357D02*
X130610626Y-126202262D01*
X130634435Y-126249881D01*
X130682054Y-126273690D01*
X130753483Y-126273690D01*
X130801102Y-126249881D01*
X130824911Y-126226071D01*
X131063007Y-126273690D02*
X131063007Y-125940357D01*
X131063007Y-125773690D02*
X131039197Y-125797500D01*
X131063007Y-125821310D01*
X131086816Y-125797500D01*
X131063007Y-125773690D01*
X131063007Y-125821310D01*
X131301102Y-125940357D02*
X131301102Y-126273690D01*
X131301102Y-125987976D02*
X131324911Y-125964167D01*
X131372530Y-125940357D01*
X131443959Y-125940357D01*
X131491578Y-125964167D01*
X131515387Y-126011786D01*
X131515387Y-126273690D01*
X131682054Y-125940357D02*
X131872530Y-125940357D01*
X131753483Y-125773690D02*
X131753483Y-126202262D01*
X131777292Y-126249881D01*
X131824911Y-126273690D01*
X131872530Y-126273690D01*
X132039197Y-126273690D02*
X132039197Y-125940357D01*
X132039197Y-125773690D02*
X132015387Y-125797500D01*
X132039197Y-125821310D01*
X132063006Y-125797500D01*
X132039197Y-125773690D01*
X132039197Y-125821310D01*
X132491577Y-126249881D02*
X132443958Y-126273690D01*
X132348720Y-126273690D01*
X132301101Y-126249881D01*
X132277292Y-126226071D01*
X132253482Y-126178452D01*
X132253482Y-126035595D01*
X132277292Y-125987976D01*
X132301101Y-125964167D01*
X132348720Y-125940357D01*
X132443958Y-125940357D01*
X132491577Y-125964167D01*
X133086815Y-126011786D02*
X133253481Y-126011786D01*
X133324910Y-126273690D02*
X133086815Y-126273690D01*
X133086815Y-125773690D01*
X133324910Y-125773690D01*
X133539196Y-126011786D02*
X133705862Y-126011786D01*
X133777291Y-126273690D02*
X133539196Y-126273690D01*
X133539196Y-125773690D01*
X133777291Y-125773690D01*
X133991577Y-126273690D02*
X133991577Y-125773690D01*
X134182053Y-125773690D01*
X134229672Y-125797500D01*
X134253481Y-125821310D01*
X134277291Y-125868929D01*
X134277291Y-125940357D01*
X134253481Y-125987976D01*
X134229672Y-126011786D01*
X134182053Y-126035595D01*
X133991577Y-126035595D01*
X134777291Y-126273690D02*
X134610624Y-126035595D01*
X134491577Y-126273690D02*
X134491577Y-125773690D01*
X134682053Y-125773690D01*
X134729672Y-125797500D01*
X134753481Y-125821310D01*
X134777291Y-125868929D01*
X134777291Y-125940357D01*
X134753481Y-125987976D01*
X134729672Y-126011786D01*
X134682053Y-126035595D01*
X134491577Y-126035595D01*
X135086815Y-125773690D02*
X135182053Y-125773690D01*
X135229672Y-125797500D01*
X135277291Y-125845119D01*
X135301100Y-125940357D01*
X135301100Y-126107024D01*
X135277291Y-126202262D01*
X135229672Y-126249881D01*
X135182053Y-126273690D01*
X135086815Y-126273690D01*
X135039196Y-126249881D01*
X134991577Y-126202262D01*
X134967767Y-126107024D01*
X134967767Y-125940357D01*
X134991577Y-125845119D01*
X135039196Y-125797500D01*
X135086815Y-125773690D01*
X135515387Y-126273690D02*
X135515387Y-125773690D01*
X135682053Y-126130833D01*
X135848720Y-125773690D01*
X135848720Y-126273690D01*
X136443958Y-126130833D02*
X136682053Y-126130833D01*
X136396339Y-126273690D02*
X136563006Y-125773690D01*
X136729672Y-126273690D01*
X137110624Y-126273690D02*
X137110624Y-125773690D01*
X137110624Y-126249881D02*
X137063005Y-126273690D01*
X136967767Y-126273690D01*
X136920148Y-126249881D01*
X136896339Y-126226071D01*
X136872529Y-126178452D01*
X136872529Y-126035595D01*
X136896339Y-125987976D01*
X136920148Y-125964167D01*
X136967767Y-125940357D01*
X137063005Y-125940357D01*
X137110624Y-125964167D01*
X137563005Y-126273690D02*
X137563005Y-126011786D01*
X137539196Y-125964167D01*
X137491577Y-125940357D01*
X137396339Y-125940357D01*
X137348720Y-125964167D01*
X137563005Y-126249881D02*
X137515386Y-126273690D01*
X137396339Y-126273690D01*
X137348720Y-126249881D01*
X137324910Y-126202262D01*
X137324910Y-126154643D01*
X137348720Y-126107024D01*
X137396339Y-126083214D01*
X137515386Y-126083214D01*
X137563005Y-126059405D01*
X137801101Y-125940357D02*
X137801101Y-126440357D01*
X137801101Y-125964167D02*
X137848720Y-125940357D01*
X137943958Y-125940357D01*
X137991577Y-125964167D01*
X138015386Y-125987976D01*
X138039196Y-126035595D01*
X138039196Y-126178452D01*
X138015386Y-126226071D01*
X137991577Y-126249881D01*
X137943958Y-126273690D01*
X137848720Y-126273690D01*
X137801101Y-126249881D01*
X138182053Y-125940357D02*
X138372529Y-125940357D01*
X138253482Y-125773690D02*
X138253482Y-126202262D01*
X138277291Y-126249881D01*
X138324910Y-126273690D01*
X138372529Y-126273690D01*
X138729672Y-126249881D02*
X138682053Y-126273690D01*
X138586815Y-126273690D01*
X138539196Y-126249881D01*
X138515386Y-126202262D01*
X138515386Y-126011786D01*
X138539196Y-125964167D01*
X138586815Y-125940357D01*
X138682053Y-125940357D01*
X138729672Y-125964167D01*
X138753481Y-126011786D01*
X138753481Y-126059405D01*
X138515386Y-126107024D01*
X138967767Y-126273690D02*
X138967767Y-125940357D01*
X138967767Y-126035595D02*
X138991576Y-125987976D01*
X139015386Y-125964167D01*
X139063005Y-125940357D01*
X139110624Y-125940357D01*
X139658243Y-126083214D02*
X140039195Y-126083214D01*
X140658243Y-126273690D02*
X140658243Y-125940357D01*
X140658243Y-126035595D02*
X140682052Y-125987976D01*
X140705862Y-125964167D01*
X140753481Y-125940357D01*
X140801100Y-125940357D01*
X141158243Y-126249881D02*
X141110624Y-126273690D01*
X141015386Y-126273690D01*
X140967767Y-126249881D01*
X140943957Y-126202262D01*
X140943957Y-126011786D01*
X140967767Y-125964167D01*
X141015386Y-125940357D01*
X141110624Y-125940357D01*
X141158243Y-125964167D01*
X141182052Y-126011786D01*
X141182052Y-126059405D01*
X140943957Y-126107024D01*
X141348719Y-125940357D02*
X141467766Y-126273690D01*
X141586814Y-125940357D01*
X141753480Y-126130833D02*
X141991575Y-126130833D01*
X141705861Y-126273690D02*
X141872528Y-125773690D01*
X142039194Y-126273690D01*
D12*
X151561800Y-123799600D02*
G75*
G03X151561800Y-123799600I-254000J0D01*
G01*
D13*
X145585200Y-125141800D02*
X145585200Y-124641800D01*
X144635200Y-124641800D02*
X144635200Y-125141800D01*
X143510000Y-126746000D02*
X137160000Y-126746000D01*
X125730000Y-126746000D02*
X125730000Y-119634000D01*
X143510000Y-126746000D02*
X143510000Y-119634000D01*
X132080000Y-126746000D02*
X125730000Y-126746000D01*
X125730000Y-119634000D02*
X143510000Y-119634000D01*
X138410000Y-126746000D02*
X132060000Y-126746000D01*
X128016000Y-124460000D02*
X126746000Y-123698000D01*
X126746000Y-123698000D02*
X126746000Y-125222000D01*
X126746000Y-125222000D02*
X128016000Y-124460000D01*
X149410400Y-124743400D02*
X149410400Y-125243400D01*
X150360400Y-125243400D02*
X150360400Y-124743400D01*
X148165800Y-124743400D02*
X148165800Y-125243400D01*
X149115800Y-125243400D02*
X149115800Y-124743400D01*
X150381600Y-123265600D02*
X150381600Y-123165600D01*
X145731600Y-123265600D02*
X145731600Y-123065600D01*
X145731600Y-120015600D02*
X145731600Y-120215600D01*
X150381600Y-120015600D02*
X150381600Y-120215600D01*
X150381600Y-123265600D02*
X145731600Y-123265600D01*
X150381600Y-120015600D02*
X145731600Y-120015600D01*
X150381600Y-123165600D02*
X151731600Y-123165600D01*
D14*
X154051000Y-123774200D02*
X155778200Y-123774200D01*
X153797000Y-124028200D02*
X153797000Y-125552200D01*
X156032200Y-124028200D02*
X156032200Y-125552200D01*
X155778200Y-125806200D02*
X154051000Y-125806200D01*
X153797000Y-125552200D02*
G75*
G03X154051000Y-125806200I254000J0D01*
G01*
X155778200Y-125806200D02*
G75*
G03X156032200Y-125552200I0J254000D01*
G01*
X156032200Y-124028200D02*
G75*
G03X155778200Y-123774200I-254000J0D01*
G01*
X154051000Y-123774200D02*
G75*
G03X153797000Y-124028200I0J-254000D01*
G01*
X154051000Y-121742200D02*
X155778200Y-121742200D01*
X153797000Y-121996200D02*
X153797000Y-123520200D01*
X156032200Y-121996200D02*
X156032200Y-123520200D01*
X155778200Y-123774200D02*
X154051000Y-123774200D01*
X153797000Y-123520200D02*
G75*
G03X154051000Y-123774200I254000J0D01*
G01*
X155778200Y-123774200D02*
G75*
G03X156032200Y-123520200I0J254000D01*
G01*
X156032200Y-121996200D02*
G75*
G03X155778200Y-121742200I-254000J0D01*
G01*
X154051000Y-121742200D02*
G75*
G03X153797000Y-121996200I0J-254000D01*
G01*
X154051000Y-119659400D02*
X155778200Y-119659400D01*
X153797000Y-119913400D02*
X153797000Y-121437400D01*
X156032200Y-119913400D02*
X156032200Y-121437400D01*
X155778200Y-121691400D02*
X154051000Y-121691400D01*
X153797000Y-121437400D02*
G75*
G03X154051000Y-121691400I254000J0D01*
G01*
X155778200Y-121691400D02*
G75*
G03X156032200Y-121437400I0J254000D01*
G01*
X156032200Y-119913400D02*
G75*
G03X155778200Y-119659400I-254000J0D01*
G01*
X154051000Y-119659400D02*
G75*
G03X153797000Y-119913400I0J-254000D01*
G01*
D15*
X146298557Y-125636262D02*
X146449748Y-126271262D01*
X146570700Y-125817690D01*
X146691653Y-126271262D01*
X146842843Y-125636262D01*
X147084747Y-126271262D02*
X147084747Y-125636262D01*
X147326652Y-125636262D01*
X147387128Y-125666500D01*
X147417367Y-125696738D01*
X147447605Y-125757214D01*
X147447605Y-125847929D01*
X147417367Y-125908405D01*
X147387128Y-125938643D01*
X147326652Y-125968881D01*
X147084747Y-125968881D01*
D16*
X153365200Y-125225628D02*
X153365200Y-124935342D01*
X153539371Y-125283685D02*
X152929771Y-125080485D01*
X153539371Y-124877285D01*
X152929771Y-124557971D02*
X152929771Y-124499914D01*
X152958800Y-124441857D01*
X152987829Y-124412828D01*
X153045886Y-124383799D01*
X153162000Y-124354771D01*
X153307143Y-124354771D01*
X153423257Y-124383799D01*
X153481314Y-124412828D01*
X153510343Y-124441857D01*
X153539371Y-124499914D01*
X153539371Y-124557971D01*
X153510343Y-124616028D01*
X153481314Y-124645057D01*
X153423257Y-124674085D01*
X153307143Y-124703114D01*
X153162000Y-124703114D01*
X153045886Y-124674085D01*
X152987829Y-124645057D01*
X152958800Y-124616028D01*
X152929771Y-124557971D01*
X153390600Y-123193628D02*
X153390600Y-122903342D01*
X153564771Y-123251685D02*
X152955171Y-123048485D01*
X153564771Y-122845285D01*
X153564771Y-122322771D02*
X153564771Y-122671114D01*
X153564771Y-122496942D02*
X152955171Y-122496942D01*
X153042257Y-122554999D01*
X153100314Y-122613057D01*
X153129343Y-122671114D01*
X153339800Y-121161628D02*
X153339800Y-120871342D01*
X153513971Y-121219685D02*
X152904371Y-121016485D01*
X153513971Y-120813285D01*
X152962429Y-120639114D02*
X152933400Y-120610085D01*
X152904371Y-120552028D01*
X152904371Y-120406885D01*
X152933400Y-120348828D01*
X152962429Y-120319799D01*
X153020486Y-120290771D01*
X153078543Y-120290771D01*
X153165629Y-120319799D01*
X153513971Y-120668142D01*
X153513971Y-120290771D01*
M02*
