G04 #@! TF.FileFunction,Copper,L2,Bot,Signal*
%FSLAX46Y46*%
G04 Gerber Fmt 4.6, Leading zero omitted, Abs format (unit mm)*
G04 Created by KiCad (PCBNEW 4.0.2-stable) date Monday, July 02, 2018 'PMt' 02:59:00 PM*
%MOMM*%
G01*
G04 APERTURE LIST*
%ADD10C,0.025400*%
%ADD11R,1.450000X1.450000*%
%ADD12C,1.450000*%
%ADD13C,1.445000*%
%ADD14C,0.600000*%
%ADD15C,0.250000*%
%ADD16C,0.254000*%
G04 APERTURE END LIST*
D10*
D11*
X129540000Y-124460000D03*
D12*
X129540000Y-121920000D03*
X132080000Y-124460000D03*
X132080000Y-121920000D03*
X134620000Y-124460000D03*
D13*
X134620000Y-121920000D03*
D12*
X137160000Y-124460000D03*
X137160000Y-121920000D03*
X139700000Y-124460000D03*
X139700000Y-121920000D03*
D14*
X144145000Y-125917790D03*
X149463400Y-120665600D03*
D15*
X144145000Y-125917790D02*
X149397190Y-120665600D01*
X149397190Y-120665600D02*
X149463400Y-120665600D01*
X129540000Y-124460000D02*
X129540000Y-125435000D01*
X130022790Y-125917790D02*
X143720736Y-125917790D01*
X129540000Y-125435000D02*
X130022790Y-125917790D01*
X143720736Y-125917790D02*
X144145000Y-125917790D01*
D16*
G36*
X156008000Y-126544000D02*
X127456000Y-126544000D01*
X127456000Y-124682250D01*
X128434000Y-124682250D01*
X128434000Y-125260785D01*
X128492004Y-125400819D01*
X128599180Y-125507996D01*
X128739214Y-125566000D01*
X129317750Y-125566000D01*
X129413000Y-125470750D01*
X129413000Y-124587000D01*
X129667000Y-124587000D01*
X129667000Y-125470750D01*
X129762250Y-125566000D01*
X130340786Y-125566000D01*
X130480820Y-125507996D01*
X130587996Y-125400819D01*
X130646000Y-125260785D01*
X130646000Y-124682250D01*
X130642782Y-124679032D01*
X130973808Y-124679032D01*
X131141832Y-125085680D01*
X131452683Y-125397075D01*
X131859038Y-125565808D01*
X132299032Y-125566192D01*
X132705680Y-125398168D01*
X133017075Y-125087317D01*
X133185808Y-124680962D01*
X133185809Y-124679032D01*
X133513808Y-124679032D01*
X133681832Y-125085680D01*
X133992683Y-125397075D01*
X134399038Y-125565808D01*
X134839032Y-125566192D01*
X135245680Y-125398168D01*
X135557075Y-125087317D01*
X135725808Y-124680962D01*
X135725809Y-124679032D01*
X136053808Y-124679032D01*
X136221832Y-125085680D01*
X136532683Y-125397075D01*
X136939038Y-125565808D01*
X137379032Y-125566192D01*
X137785680Y-125398168D01*
X138097075Y-125087317D01*
X138265808Y-124680962D01*
X138265809Y-124679032D01*
X138593808Y-124679032D01*
X138761832Y-125085680D01*
X139072683Y-125397075D01*
X139479038Y-125565808D01*
X139919032Y-125566192D01*
X140325680Y-125398168D01*
X140637075Y-125087317D01*
X140805808Y-124680962D01*
X140806192Y-124240968D01*
X140638168Y-123834320D01*
X140327317Y-123522925D01*
X139920962Y-123354192D01*
X139480968Y-123353808D01*
X139074320Y-123521832D01*
X138762925Y-123832683D01*
X138594192Y-124239038D01*
X138593808Y-124679032D01*
X138265809Y-124679032D01*
X138266192Y-124240968D01*
X138098168Y-123834320D01*
X137787317Y-123522925D01*
X137380962Y-123354192D01*
X136940968Y-123353808D01*
X136534320Y-123521832D01*
X136222925Y-123832683D01*
X136054192Y-124239038D01*
X136053808Y-124679032D01*
X135725809Y-124679032D01*
X135726192Y-124240968D01*
X135558168Y-123834320D01*
X135247317Y-123522925D01*
X134840962Y-123354192D01*
X134400968Y-123353808D01*
X133994320Y-123521832D01*
X133682925Y-123832683D01*
X133514192Y-124239038D01*
X133513808Y-124679032D01*
X133185809Y-124679032D01*
X133186192Y-124240968D01*
X133018168Y-123834320D01*
X132707317Y-123522925D01*
X132300962Y-123354192D01*
X131860968Y-123353808D01*
X131454320Y-123521832D01*
X131142925Y-123832683D01*
X130974192Y-124239038D01*
X130973808Y-124679032D01*
X130642782Y-124679032D01*
X130550750Y-124587000D01*
X129667000Y-124587000D01*
X129413000Y-124587000D01*
X128529250Y-124587000D01*
X128434000Y-124682250D01*
X127456000Y-124682250D01*
X127456000Y-123659215D01*
X128434000Y-123659215D01*
X128434000Y-124237750D01*
X128529250Y-124333000D01*
X129413000Y-124333000D01*
X129413000Y-123449250D01*
X129667000Y-123449250D01*
X129667000Y-124333000D01*
X130550750Y-124333000D01*
X130646000Y-124237750D01*
X130646000Y-123659215D01*
X130587996Y-123519181D01*
X130480820Y-123412004D01*
X130340786Y-123354000D01*
X129762250Y-123354000D01*
X129667000Y-123449250D01*
X129413000Y-123449250D01*
X129317750Y-123354000D01*
X128739214Y-123354000D01*
X128599180Y-123412004D01*
X128492004Y-123519181D01*
X128434000Y-123659215D01*
X127456000Y-123659215D01*
X127456000Y-122139032D01*
X128433808Y-122139032D01*
X128601832Y-122545680D01*
X128912683Y-122857075D01*
X129319038Y-123025808D01*
X129759032Y-123026192D01*
X130165680Y-122858168D01*
X130477075Y-122547317D01*
X130645808Y-122140962D01*
X130645809Y-122139032D01*
X130973808Y-122139032D01*
X131141832Y-122545680D01*
X131452683Y-122857075D01*
X131859038Y-123025808D01*
X132299032Y-123026192D01*
X132705680Y-122858168D01*
X133017075Y-122547317D01*
X133185808Y-122140962D01*
X133185810Y-122138537D01*
X133516309Y-122138537D01*
X133683953Y-122544266D01*
X133994101Y-122854956D01*
X134399537Y-123023308D01*
X134838537Y-123023691D01*
X135244266Y-122856047D01*
X135554956Y-122545899D01*
X135723308Y-122140463D01*
X135723309Y-122139032D01*
X136053808Y-122139032D01*
X136221832Y-122545680D01*
X136532683Y-122857075D01*
X136939038Y-123025808D01*
X137379032Y-123026192D01*
X137785680Y-122858168D01*
X138097075Y-122547317D01*
X138265808Y-122140962D01*
X138265809Y-122139032D01*
X138593808Y-122139032D01*
X138761832Y-122545680D01*
X139072683Y-122857075D01*
X139479038Y-123025808D01*
X139919032Y-123026192D01*
X140325680Y-122858168D01*
X140637075Y-122547317D01*
X140805808Y-122140962D01*
X140806192Y-121700968D01*
X140638168Y-121294320D01*
X140327317Y-120982925D01*
X139920962Y-120814192D01*
X139480968Y-120813808D01*
X139074320Y-120981832D01*
X138762925Y-121292683D01*
X138594192Y-121699038D01*
X138593808Y-122139032D01*
X138265809Y-122139032D01*
X138266192Y-121700968D01*
X138098168Y-121294320D01*
X137787317Y-120982925D01*
X137380962Y-120814192D01*
X136940968Y-120813808D01*
X136534320Y-120981832D01*
X136222925Y-121292683D01*
X136054192Y-121699038D01*
X136053808Y-122139032D01*
X135723309Y-122139032D01*
X135723691Y-121701463D01*
X135556047Y-121295734D01*
X135245899Y-120985044D01*
X134840463Y-120816692D01*
X134401463Y-120816309D01*
X133995734Y-120983953D01*
X133685044Y-121294101D01*
X133516692Y-121699537D01*
X133516309Y-122138537D01*
X133185810Y-122138537D01*
X133186192Y-121700968D01*
X133018168Y-121294320D01*
X132707317Y-120982925D01*
X132300962Y-120814192D01*
X131860968Y-120813808D01*
X131454320Y-120981832D01*
X131142925Y-121292683D01*
X130974192Y-121699038D01*
X130973808Y-122139032D01*
X130645809Y-122139032D01*
X130646192Y-121700968D01*
X130478168Y-121294320D01*
X130167317Y-120982925D01*
X129760962Y-120814192D01*
X129320968Y-120813808D01*
X128914320Y-120981832D01*
X128602925Y-121292683D01*
X128434192Y-121699038D01*
X128433808Y-122139032D01*
X127456000Y-122139032D01*
X127456000Y-119836000D01*
X156008000Y-119836000D01*
X156008000Y-126544000D01*
X156008000Y-126544000D01*
G37*
X156008000Y-126544000D02*
X127456000Y-126544000D01*
X127456000Y-124682250D01*
X128434000Y-124682250D01*
X128434000Y-125260785D01*
X128492004Y-125400819D01*
X128599180Y-125507996D01*
X128739214Y-125566000D01*
X129317750Y-125566000D01*
X129413000Y-125470750D01*
X129413000Y-124587000D01*
X129667000Y-124587000D01*
X129667000Y-125470750D01*
X129762250Y-125566000D01*
X130340786Y-125566000D01*
X130480820Y-125507996D01*
X130587996Y-125400819D01*
X130646000Y-125260785D01*
X130646000Y-124682250D01*
X130642782Y-124679032D01*
X130973808Y-124679032D01*
X131141832Y-125085680D01*
X131452683Y-125397075D01*
X131859038Y-125565808D01*
X132299032Y-125566192D01*
X132705680Y-125398168D01*
X133017075Y-125087317D01*
X133185808Y-124680962D01*
X133185809Y-124679032D01*
X133513808Y-124679032D01*
X133681832Y-125085680D01*
X133992683Y-125397075D01*
X134399038Y-125565808D01*
X134839032Y-125566192D01*
X135245680Y-125398168D01*
X135557075Y-125087317D01*
X135725808Y-124680962D01*
X135725809Y-124679032D01*
X136053808Y-124679032D01*
X136221832Y-125085680D01*
X136532683Y-125397075D01*
X136939038Y-125565808D01*
X137379032Y-125566192D01*
X137785680Y-125398168D01*
X138097075Y-125087317D01*
X138265808Y-124680962D01*
X138265809Y-124679032D01*
X138593808Y-124679032D01*
X138761832Y-125085680D01*
X139072683Y-125397075D01*
X139479038Y-125565808D01*
X139919032Y-125566192D01*
X140325680Y-125398168D01*
X140637075Y-125087317D01*
X140805808Y-124680962D01*
X140806192Y-124240968D01*
X140638168Y-123834320D01*
X140327317Y-123522925D01*
X139920962Y-123354192D01*
X139480968Y-123353808D01*
X139074320Y-123521832D01*
X138762925Y-123832683D01*
X138594192Y-124239038D01*
X138593808Y-124679032D01*
X138265809Y-124679032D01*
X138266192Y-124240968D01*
X138098168Y-123834320D01*
X137787317Y-123522925D01*
X137380962Y-123354192D01*
X136940968Y-123353808D01*
X136534320Y-123521832D01*
X136222925Y-123832683D01*
X136054192Y-124239038D01*
X136053808Y-124679032D01*
X135725809Y-124679032D01*
X135726192Y-124240968D01*
X135558168Y-123834320D01*
X135247317Y-123522925D01*
X134840962Y-123354192D01*
X134400968Y-123353808D01*
X133994320Y-123521832D01*
X133682925Y-123832683D01*
X133514192Y-124239038D01*
X133513808Y-124679032D01*
X133185809Y-124679032D01*
X133186192Y-124240968D01*
X133018168Y-123834320D01*
X132707317Y-123522925D01*
X132300962Y-123354192D01*
X131860968Y-123353808D01*
X131454320Y-123521832D01*
X131142925Y-123832683D01*
X130974192Y-124239038D01*
X130973808Y-124679032D01*
X130642782Y-124679032D01*
X130550750Y-124587000D01*
X129667000Y-124587000D01*
X129413000Y-124587000D01*
X128529250Y-124587000D01*
X128434000Y-124682250D01*
X127456000Y-124682250D01*
X127456000Y-123659215D01*
X128434000Y-123659215D01*
X128434000Y-124237750D01*
X128529250Y-124333000D01*
X129413000Y-124333000D01*
X129413000Y-123449250D01*
X129667000Y-123449250D01*
X129667000Y-124333000D01*
X130550750Y-124333000D01*
X130646000Y-124237750D01*
X130646000Y-123659215D01*
X130587996Y-123519181D01*
X130480820Y-123412004D01*
X130340786Y-123354000D01*
X129762250Y-123354000D01*
X129667000Y-123449250D01*
X129413000Y-123449250D01*
X129317750Y-123354000D01*
X128739214Y-123354000D01*
X128599180Y-123412004D01*
X128492004Y-123519181D01*
X128434000Y-123659215D01*
X127456000Y-123659215D01*
X127456000Y-122139032D01*
X128433808Y-122139032D01*
X128601832Y-122545680D01*
X128912683Y-122857075D01*
X129319038Y-123025808D01*
X129759032Y-123026192D01*
X130165680Y-122858168D01*
X130477075Y-122547317D01*
X130645808Y-122140962D01*
X130645809Y-122139032D01*
X130973808Y-122139032D01*
X131141832Y-122545680D01*
X131452683Y-122857075D01*
X131859038Y-123025808D01*
X132299032Y-123026192D01*
X132705680Y-122858168D01*
X133017075Y-122547317D01*
X133185808Y-122140962D01*
X133185810Y-122138537D01*
X133516309Y-122138537D01*
X133683953Y-122544266D01*
X133994101Y-122854956D01*
X134399537Y-123023308D01*
X134838537Y-123023691D01*
X135244266Y-122856047D01*
X135554956Y-122545899D01*
X135723308Y-122140463D01*
X135723309Y-122139032D01*
X136053808Y-122139032D01*
X136221832Y-122545680D01*
X136532683Y-122857075D01*
X136939038Y-123025808D01*
X137379032Y-123026192D01*
X137785680Y-122858168D01*
X138097075Y-122547317D01*
X138265808Y-122140962D01*
X138265809Y-122139032D01*
X138593808Y-122139032D01*
X138761832Y-122545680D01*
X139072683Y-122857075D01*
X139479038Y-123025808D01*
X139919032Y-123026192D01*
X140325680Y-122858168D01*
X140637075Y-122547317D01*
X140805808Y-122140962D01*
X140806192Y-121700968D01*
X140638168Y-121294320D01*
X140327317Y-120982925D01*
X139920962Y-120814192D01*
X139480968Y-120813808D01*
X139074320Y-120981832D01*
X138762925Y-121292683D01*
X138594192Y-121699038D01*
X138593808Y-122139032D01*
X138265809Y-122139032D01*
X138266192Y-121700968D01*
X138098168Y-121294320D01*
X137787317Y-120982925D01*
X137380962Y-120814192D01*
X136940968Y-120813808D01*
X136534320Y-120981832D01*
X136222925Y-121292683D01*
X136054192Y-121699038D01*
X136053808Y-122139032D01*
X135723309Y-122139032D01*
X135723691Y-121701463D01*
X135556047Y-121295734D01*
X135245899Y-120985044D01*
X134840463Y-120816692D01*
X134401463Y-120816309D01*
X133995734Y-120983953D01*
X133685044Y-121294101D01*
X133516692Y-121699537D01*
X133516309Y-122138537D01*
X133185810Y-122138537D01*
X133186192Y-121700968D01*
X133018168Y-121294320D01*
X132707317Y-120982925D01*
X132300962Y-120814192D01*
X131860968Y-120813808D01*
X131454320Y-120981832D01*
X131142925Y-121292683D01*
X130974192Y-121699038D01*
X130973808Y-122139032D01*
X130645809Y-122139032D01*
X130646192Y-121700968D01*
X130478168Y-121294320D01*
X130167317Y-120982925D01*
X129760962Y-120814192D01*
X129320968Y-120813808D01*
X128914320Y-120981832D01*
X128602925Y-121292683D01*
X128434192Y-121699038D01*
X128433808Y-122139032D01*
X127456000Y-122139032D01*
X127456000Y-119836000D01*
X156008000Y-119836000D01*
X156008000Y-126544000D01*
M02*
