G04 #@! TF.FileFunction,Soldermask,Top*
%FSLAX46Y46*%
G04 Gerber Fmt 4.6, Leading zero omitted, Abs format (unit mm)*
G04 Created by KiCad (PCBNEW 4.0.2-stable) date Monday, July 02, 2018 'PMt' 02:59:00 PM*
%MOMM*%
G01*
G04 APERTURE LIST*
%ADD10C,0.025400*%
G04 APERTURE END LIST*
D10*
G36*
X130341200Y-125261200D02*
X128760652Y-125261200D01*
X128757114Y-125261703D01*
X128753856Y-125263171D01*
X128751136Y-125265490D01*
X128749170Y-125268474D01*
X128748112Y-125271887D01*
X128748048Y-125275460D01*
X128748982Y-125278910D01*
X128751640Y-125282849D01*
X128807155Y-125338753D01*
X128882194Y-125451697D01*
X128917415Y-125504709D01*
X128993343Y-125688923D01*
X129032044Y-125884376D01*
X129028866Y-126111955D01*
X129028846Y-126112043D01*
X129028846Y-126112045D01*
X129006953Y-126208407D01*
X128984723Y-126306251D01*
X128957595Y-126367180D01*
X128903682Y-126488272D01*
X128902650Y-126489735D01*
X128788828Y-126651088D01*
X128644539Y-126788493D01*
X128476308Y-126895255D01*
X128290545Y-126967308D01*
X128290542Y-126967308D01*
X128290541Y-126967309D01*
X128167777Y-126988955D01*
X128094324Y-127001907D01*
X128094323Y-127001907D01*
X127895122Y-126997735D01*
X127821572Y-126981564D01*
X127700520Y-126954949D01*
X127517936Y-126875180D01*
X127354324Y-126761467D01*
X127215915Y-126618140D01*
X127135852Y-126493907D01*
X127107980Y-126450658D01*
X127034632Y-126265402D01*
X126998664Y-126069431D01*
X126999909Y-125980272D01*
X127001446Y-125870200D01*
X127016739Y-125798251D01*
X127042871Y-125675308D01*
X127121364Y-125492170D01*
X127233931Y-125327769D01*
X127376291Y-125188360D01*
X127543014Y-125079261D01*
X127727753Y-125004621D01*
X127923472Y-124967286D01*
X128122715Y-124968677D01*
X128317893Y-125008741D01*
X128420071Y-125051693D01*
X128501572Y-125085953D01*
X128666756Y-125197370D01*
X128717088Y-125248055D01*
X128719938Y-125250211D01*
X128723276Y-125251488D01*
X128726837Y-125251785D01*
X128730340Y-125251077D01*
X128733508Y-125249422D01*
X128736088Y-125246950D01*
X128737878Y-125243857D01*
X128738800Y-125239106D01*
X128738800Y-123658800D01*
X130341200Y-123658800D01*
X130341200Y-125261200D01*
X130341200Y-125261200D01*
G37*
G36*
X151998715Y-124460677D02*
X152193893Y-124500741D01*
X152337012Y-124560903D01*
X152377572Y-124577953D01*
X152542756Y-124689370D01*
X152613450Y-124760560D01*
X152683153Y-124830751D01*
X152683155Y-124830754D01*
X152773867Y-124967286D01*
X152793415Y-124996709D01*
X152869343Y-125180923D01*
X152908044Y-125376376D01*
X152904866Y-125603955D01*
X152904846Y-125604043D01*
X152904846Y-125604045D01*
X152888655Y-125675308D01*
X152860723Y-125798251D01*
X152828691Y-125870195D01*
X152779682Y-125980272D01*
X152779681Y-125980273D01*
X152664828Y-126143088D01*
X152520539Y-126280493D01*
X152352308Y-126387255D01*
X152166545Y-126459308D01*
X152166542Y-126459308D01*
X152166541Y-126459309D01*
X152043777Y-126480955D01*
X151970324Y-126493907D01*
X151970323Y-126493907D01*
X151771122Y-126489735D01*
X151697572Y-126473564D01*
X151576520Y-126446949D01*
X151393936Y-126367180D01*
X151230324Y-126253467D01*
X151091915Y-126110140D01*
X151065678Y-126069428D01*
X150983980Y-125942658D01*
X150910632Y-125757402D01*
X150874664Y-125561431D01*
X150875631Y-125492170D01*
X150877446Y-125362200D01*
X150884506Y-125328983D01*
X150918871Y-125167308D01*
X150997364Y-124984170D01*
X151109931Y-124819769D01*
X151252291Y-124680360D01*
X151419014Y-124571261D01*
X151603753Y-124496621D01*
X151799472Y-124459286D01*
X151998715Y-124460677D01*
X151998715Y-124460677D01*
G37*
G36*
X150211600Y-125919600D02*
X149559200Y-125919600D01*
X149559200Y-125167200D01*
X150211600Y-125167200D01*
X150211600Y-125919600D01*
X150211600Y-125919600D01*
G37*
G36*
X148967000Y-125919600D02*
X148314600Y-125919600D01*
X148314600Y-125167200D01*
X148967000Y-125167200D01*
X148967000Y-125919600D01*
X148967000Y-125919600D01*
G37*
G36*
X145436400Y-125818000D02*
X144784000Y-125818000D01*
X144784000Y-125065600D01*
X145436400Y-125065600D01*
X145436400Y-125818000D01*
X145436400Y-125818000D01*
G37*
G36*
X155740100Y-125526800D02*
X154089100Y-125526800D01*
X154089100Y-124053600D01*
X155740100Y-124053600D01*
X155740100Y-125526800D01*
X155740100Y-125526800D01*
G37*
G36*
X146949561Y-124282589D02*
X147061789Y-124305626D01*
X147100544Y-124321917D01*
X147167404Y-124350022D01*
X147262384Y-124414087D01*
X147343115Y-124495384D01*
X147364364Y-124527367D01*
X147406514Y-124590808D01*
X147443424Y-124680360D01*
X147450173Y-124696733D01*
X147463857Y-124765844D01*
X147472425Y-124809116D01*
X147470598Y-124939974D01*
X147445216Y-125051695D01*
X147429963Y-125085953D01*
X147398618Y-125156356D01*
X147390892Y-125167308D01*
X147332577Y-125249976D01*
X147249610Y-125328984D01*
X147152877Y-125390372D01*
X147046063Y-125431802D01*
X147046060Y-125431803D01*
X146963968Y-125446278D01*
X146933236Y-125451697D01*
X146933235Y-125451697D01*
X146895055Y-125450897D01*
X146818694Y-125449298D01*
X146706799Y-125424696D01*
X146601813Y-125378829D01*
X146507736Y-125313444D01*
X146428151Y-125231031D01*
X146428150Y-125231030D01*
X146366088Y-125134728D01*
X146323913Y-125028206D01*
X146320341Y-125008741D01*
X146315831Y-124984170D01*
X146303232Y-124915524D01*
X146304040Y-124857660D01*
X146304831Y-124800965D01*
X146328651Y-124688901D01*
X146373784Y-124583598D01*
X146438511Y-124489066D01*
X146479439Y-124448987D01*
X146520368Y-124408906D01*
X146616233Y-124346175D01*
X146722458Y-124303257D01*
X146834996Y-124281789D01*
X146949561Y-124282589D01*
X146949561Y-124282589D01*
G37*
G36*
X134704153Y-123659333D02*
X134858068Y-123690927D01*
X135002914Y-123751815D01*
X135133175Y-123839677D01*
X135243892Y-123951170D01*
X135253479Y-123965600D01*
X135330841Y-124082039D01*
X135390716Y-124227307D01*
X135421235Y-124381438D01*
X135418729Y-124560903D01*
X135418709Y-124560991D01*
X135418709Y-124560993D01*
X135383919Y-124714120D01*
X135320011Y-124857660D01*
X135320010Y-124857661D01*
X135229439Y-124986054D01*
X135229437Y-124986056D01*
X135115655Y-125094409D01*
X134982994Y-125178599D01*
X134957826Y-125188361D01*
X134861628Y-125225674D01*
X134836498Y-125235421D01*
X134681765Y-125262705D01*
X134530993Y-125259546D01*
X134524676Y-125259414D01*
X134371218Y-125225674D01*
X134268792Y-125180925D01*
X134227237Y-125162770D01*
X134227235Y-125162769D01*
X134098214Y-125073097D01*
X133989066Y-124960072D01*
X133905726Y-124830754D01*
X133903950Y-124827998D01*
X133846110Y-124681909D01*
X133817746Y-124527370D01*
X133818860Y-124447651D01*
X133819940Y-124370259D01*
X133824241Y-124350023D01*
X133852606Y-124216571D01*
X133914505Y-124072152D01*
X133955381Y-124012454D01*
X134003275Y-123942506D01*
X134115536Y-123832573D01*
X134115537Y-123832572D01*
X134247013Y-123746537D01*
X134392691Y-123687679D01*
X134392690Y-123687679D01*
X134392693Y-123687678D01*
X134547034Y-123658236D01*
X134704153Y-123659333D01*
X134704153Y-123659333D01*
G37*
G36*
X137244153Y-123659333D02*
X137398068Y-123690927D01*
X137542914Y-123751815D01*
X137673175Y-123839677D01*
X137783892Y-123951170D01*
X137793479Y-123965600D01*
X137870841Y-124082039D01*
X137930716Y-124227307D01*
X137961235Y-124381438D01*
X137958729Y-124560903D01*
X137958709Y-124560991D01*
X137958709Y-124560993D01*
X137923919Y-124714120D01*
X137860011Y-124857660D01*
X137860010Y-124857661D01*
X137769439Y-124986054D01*
X137769437Y-124986056D01*
X137655655Y-125094409D01*
X137522994Y-125178599D01*
X137497826Y-125188361D01*
X137401628Y-125225674D01*
X137376498Y-125235421D01*
X137221765Y-125262705D01*
X137070993Y-125259546D01*
X137064676Y-125259414D01*
X136911218Y-125225674D01*
X136808792Y-125180925D01*
X136767237Y-125162770D01*
X136767235Y-125162769D01*
X136638214Y-125073097D01*
X136529066Y-124960072D01*
X136445726Y-124830754D01*
X136443950Y-124827998D01*
X136386110Y-124681909D01*
X136357746Y-124527370D01*
X136358860Y-124447651D01*
X136359940Y-124370259D01*
X136364241Y-124350023D01*
X136392606Y-124216571D01*
X136454505Y-124072152D01*
X136495381Y-124012454D01*
X136543275Y-123942506D01*
X136655536Y-123832573D01*
X136655537Y-123832572D01*
X136787013Y-123746537D01*
X136932691Y-123687679D01*
X136932690Y-123687679D01*
X136932693Y-123687678D01*
X137087034Y-123658236D01*
X137244153Y-123659333D01*
X137244153Y-123659333D01*
G37*
G36*
X139784153Y-123659333D02*
X139938068Y-123690927D01*
X140082914Y-123751815D01*
X140213175Y-123839677D01*
X140323892Y-123951170D01*
X140333479Y-123965600D01*
X140410841Y-124082039D01*
X140470716Y-124227307D01*
X140501235Y-124381438D01*
X140498729Y-124560903D01*
X140498709Y-124560991D01*
X140498709Y-124560993D01*
X140463919Y-124714120D01*
X140400011Y-124857660D01*
X140400010Y-124857661D01*
X140309439Y-124986054D01*
X140309437Y-124986056D01*
X140195655Y-125094409D01*
X140062994Y-125178599D01*
X140037826Y-125188361D01*
X139941628Y-125225674D01*
X139916498Y-125235421D01*
X139761765Y-125262705D01*
X139610993Y-125259546D01*
X139604676Y-125259414D01*
X139451218Y-125225674D01*
X139348792Y-125180925D01*
X139307237Y-125162770D01*
X139307235Y-125162769D01*
X139178214Y-125073097D01*
X139069066Y-124960072D01*
X138985726Y-124830754D01*
X138983950Y-124827998D01*
X138926110Y-124681909D01*
X138897746Y-124527370D01*
X138898860Y-124447651D01*
X138899940Y-124370259D01*
X138904241Y-124350023D01*
X138932606Y-124216571D01*
X138994505Y-124072152D01*
X139035381Y-124012454D01*
X139083275Y-123942506D01*
X139195536Y-123832573D01*
X139195537Y-123832572D01*
X139327013Y-123746537D01*
X139472691Y-123687679D01*
X139472690Y-123687679D01*
X139472693Y-123687678D01*
X139627034Y-123658236D01*
X139784153Y-123659333D01*
X139784153Y-123659333D01*
G37*
G36*
X132164153Y-123659333D02*
X132318068Y-123690927D01*
X132462914Y-123751815D01*
X132593175Y-123839677D01*
X132703892Y-123951170D01*
X132713479Y-123965600D01*
X132790841Y-124082039D01*
X132850716Y-124227307D01*
X132881235Y-124381438D01*
X132878729Y-124560903D01*
X132878709Y-124560991D01*
X132878709Y-124560993D01*
X132843919Y-124714120D01*
X132780011Y-124857660D01*
X132780010Y-124857661D01*
X132689439Y-124986054D01*
X132689437Y-124986056D01*
X132575655Y-125094409D01*
X132442994Y-125178599D01*
X132417826Y-125188361D01*
X132321628Y-125225674D01*
X132296498Y-125235421D01*
X132141765Y-125262705D01*
X131990993Y-125259546D01*
X131984676Y-125259414D01*
X131831218Y-125225674D01*
X131728792Y-125180925D01*
X131687237Y-125162770D01*
X131687235Y-125162769D01*
X131558214Y-125073097D01*
X131449066Y-124960072D01*
X131365726Y-124830754D01*
X131363950Y-124827998D01*
X131306110Y-124681909D01*
X131277746Y-124527370D01*
X131278860Y-124447651D01*
X131279940Y-124370259D01*
X131284241Y-124350023D01*
X131312606Y-124216571D01*
X131374505Y-124072152D01*
X131415381Y-124012454D01*
X131463275Y-123942506D01*
X131575536Y-123832573D01*
X131575537Y-123832572D01*
X131707013Y-123746537D01*
X131852691Y-123687679D01*
X131852690Y-123687679D01*
X131852693Y-123687678D01*
X132007034Y-123658236D01*
X132164153Y-123659333D01*
X132164153Y-123659333D01*
G37*
G36*
X150211600Y-124819600D02*
X149559200Y-124819600D01*
X149559200Y-124067200D01*
X150211600Y-124067200D01*
X150211600Y-124819600D01*
X150211600Y-124819600D01*
G37*
G36*
X148967000Y-124819600D02*
X148314600Y-124819600D01*
X148314600Y-124067200D01*
X148967000Y-124067200D01*
X148967000Y-124819600D01*
X148967000Y-124819600D01*
G37*
G36*
X145436400Y-124718000D02*
X144784000Y-124718000D01*
X144784000Y-123965600D01*
X145436400Y-123965600D01*
X145436400Y-124718000D01*
X145436400Y-124718000D01*
G37*
G36*
X155740100Y-123494800D02*
X154089100Y-123494800D01*
X154089100Y-122021600D01*
X155740100Y-122021600D01*
X155740100Y-123494800D01*
X155740100Y-123494800D01*
G37*
G36*
X151807800Y-122916800D02*
X150205400Y-122916800D01*
X150205400Y-122314400D01*
X151807800Y-122314400D01*
X151807800Y-122916800D01*
X151807800Y-122916800D01*
G37*
G36*
X145907800Y-122916800D02*
X144305400Y-122916800D01*
X144305400Y-122314400D01*
X145907800Y-122314400D01*
X145907800Y-122916800D01*
X145907800Y-122916800D01*
G37*
G36*
X137244153Y-121119333D02*
X137398068Y-121150927D01*
X137535656Y-121208764D01*
X137542914Y-121211815D01*
X137673175Y-121299677D01*
X137783892Y-121411170D01*
X137812675Y-121454493D01*
X137870841Y-121542039D01*
X137930716Y-121687307D01*
X137961235Y-121841438D01*
X137958729Y-122020903D01*
X137958709Y-122020991D01*
X137958709Y-122020993D01*
X137923919Y-122174120D01*
X137860011Y-122317660D01*
X137860010Y-122317661D01*
X137769439Y-122446054D01*
X137769437Y-122446056D01*
X137655655Y-122554409D01*
X137522994Y-122638599D01*
X137522990Y-122638600D01*
X137522991Y-122638600D01*
X137382738Y-122693001D01*
X137376498Y-122695421D01*
X137221765Y-122722705D01*
X137070993Y-122719546D01*
X137064676Y-122719414D01*
X136911218Y-122685674D01*
X136839227Y-122654222D01*
X136767237Y-122622770D01*
X136767235Y-122622769D01*
X136638214Y-122533097D01*
X136529066Y-122420072D01*
X136443951Y-122287999D01*
X136443950Y-122287998D01*
X136386110Y-122141909D01*
X136357746Y-121987370D01*
X136359781Y-121841683D01*
X136359940Y-121830259D01*
X136359941Y-121830254D01*
X136392606Y-121676571D01*
X136454505Y-121532152D01*
X136526185Y-121427466D01*
X136543275Y-121402506D01*
X136655536Y-121292573D01*
X136655537Y-121292572D01*
X136778947Y-121211815D01*
X136787011Y-121206538D01*
X136932693Y-121147678D01*
X137087034Y-121118236D01*
X137244153Y-121119333D01*
X137244153Y-121119333D01*
G37*
G36*
X132164153Y-121119333D02*
X132318068Y-121150927D01*
X132455656Y-121208764D01*
X132462914Y-121211815D01*
X132593175Y-121299677D01*
X132703892Y-121411170D01*
X132732675Y-121454493D01*
X132790841Y-121542039D01*
X132850716Y-121687307D01*
X132881235Y-121841438D01*
X132878729Y-122020903D01*
X132878709Y-122020991D01*
X132878709Y-122020993D01*
X132843919Y-122174120D01*
X132780011Y-122317660D01*
X132780010Y-122317661D01*
X132689439Y-122446054D01*
X132689437Y-122446056D01*
X132575655Y-122554409D01*
X132442994Y-122638599D01*
X132442990Y-122638600D01*
X132442991Y-122638600D01*
X132302738Y-122693001D01*
X132296498Y-122695421D01*
X132141765Y-122722705D01*
X131990993Y-122719546D01*
X131984676Y-122719414D01*
X131831218Y-122685674D01*
X131759227Y-122654222D01*
X131687237Y-122622770D01*
X131687235Y-122622769D01*
X131558214Y-122533097D01*
X131449066Y-122420072D01*
X131363951Y-122287999D01*
X131363950Y-122287998D01*
X131306110Y-122141909D01*
X131277746Y-121987370D01*
X131279781Y-121841683D01*
X131279940Y-121830259D01*
X131279941Y-121830254D01*
X131312606Y-121676571D01*
X131374505Y-121532152D01*
X131446185Y-121427466D01*
X131463275Y-121402506D01*
X131575536Y-121292573D01*
X131575537Y-121292572D01*
X131698947Y-121211815D01*
X131707011Y-121206538D01*
X131852693Y-121147678D01*
X132007034Y-121118236D01*
X132164153Y-121119333D01*
X132164153Y-121119333D01*
G37*
G36*
X129624153Y-121119333D02*
X129778068Y-121150927D01*
X129915656Y-121208764D01*
X129922914Y-121211815D01*
X130053175Y-121299677D01*
X130163892Y-121411170D01*
X130192675Y-121454493D01*
X130250841Y-121542039D01*
X130310716Y-121687307D01*
X130341235Y-121841438D01*
X130338729Y-122020903D01*
X130338709Y-122020991D01*
X130338709Y-122020993D01*
X130303919Y-122174120D01*
X130240011Y-122317660D01*
X130240010Y-122317661D01*
X130149439Y-122446054D01*
X130149437Y-122446056D01*
X130035655Y-122554409D01*
X129902994Y-122638599D01*
X129902990Y-122638600D01*
X129902991Y-122638600D01*
X129762738Y-122693001D01*
X129756498Y-122695421D01*
X129601765Y-122722705D01*
X129450993Y-122719546D01*
X129444676Y-122719414D01*
X129291218Y-122685674D01*
X129219227Y-122654222D01*
X129147237Y-122622770D01*
X129147235Y-122622769D01*
X129018214Y-122533097D01*
X128909066Y-122420072D01*
X128823951Y-122287999D01*
X128823950Y-122287998D01*
X128766110Y-122141909D01*
X128737746Y-121987370D01*
X128739781Y-121841683D01*
X128739940Y-121830259D01*
X128739941Y-121830254D01*
X128772606Y-121676571D01*
X128834505Y-121532152D01*
X128906185Y-121427466D01*
X128923275Y-121402506D01*
X129035536Y-121292573D01*
X129035537Y-121292572D01*
X129158947Y-121211815D01*
X129167011Y-121206538D01*
X129312693Y-121147678D01*
X129467034Y-121118236D01*
X129624153Y-121119333D01*
X129624153Y-121119333D01*
G37*
G36*
X139784153Y-121119333D02*
X139938068Y-121150927D01*
X140075656Y-121208764D01*
X140082914Y-121211815D01*
X140213175Y-121299677D01*
X140323892Y-121411170D01*
X140352675Y-121454493D01*
X140410841Y-121542039D01*
X140470716Y-121687307D01*
X140501235Y-121841438D01*
X140498729Y-122020903D01*
X140498709Y-122020991D01*
X140498709Y-122020993D01*
X140463919Y-122174120D01*
X140400011Y-122317660D01*
X140400010Y-122317661D01*
X140309439Y-122446054D01*
X140309437Y-122446056D01*
X140195655Y-122554409D01*
X140062994Y-122638599D01*
X140062990Y-122638600D01*
X140062991Y-122638600D01*
X139922738Y-122693001D01*
X139916498Y-122695421D01*
X139761765Y-122722705D01*
X139610993Y-122719546D01*
X139604676Y-122719414D01*
X139451218Y-122685674D01*
X139379227Y-122654222D01*
X139307237Y-122622770D01*
X139307235Y-122622769D01*
X139178214Y-122533097D01*
X139069066Y-122420072D01*
X138983951Y-122287999D01*
X138983950Y-122287998D01*
X138926110Y-122141909D01*
X138897746Y-121987370D01*
X138899781Y-121841683D01*
X138899940Y-121830259D01*
X138899941Y-121830254D01*
X138932606Y-121676571D01*
X138994505Y-121532152D01*
X139066185Y-121427466D01*
X139083275Y-121402506D01*
X139195536Y-121292573D01*
X139195537Y-121292572D01*
X139318947Y-121211815D01*
X139327011Y-121206538D01*
X139472693Y-121147678D01*
X139627034Y-121118236D01*
X139784153Y-121119333D01*
X139784153Y-121119333D01*
G37*
G36*
X134626122Y-121121289D02*
X134703890Y-121121831D01*
X134780608Y-121137580D01*
X134857325Y-121153327D01*
X135001719Y-121214025D01*
X135131574Y-121301613D01*
X135241943Y-121412755D01*
X135328623Y-121543219D01*
X135388311Y-121688033D01*
X135418735Y-121841683D01*
X135416237Y-122020588D01*
X135416217Y-122020676D01*
X135416217Y-122020678D01*
X135399007Y-122096424D01*
X135381535Y-122173329D01*
X135351527Y-122240728D01*
X135317827Y-122316420D01*
X135261011Y-122396962D01*
X135227538Y-122444413D01*
X135227536Y-122444415D01*
X135114109Y-122552430D01*
X135052641Y-122591438D01*
X134981859Y-122636358D01*
X134835826Y-122693001D01*
X134681572Y-122720200D01*
X134681571Y-122720200D01*
X134524975Y-122716920D01*
X134427193Y-122695421D01*
X134371994Y-122683285D01*
X134228461Y-122620577D01*
X134099842Y-122531184D01*
X134099841Y-122531183D01*
X133991034Y-122418511D01*
X133906185Y-122286850D01*
X133848524Y-122141216D01*
X133820249Y-121987160D01*
X133822437Y-121830535D01*
X133855002Y-121677330D01*
X133916706Y-121533362D01*
X134005198Y-121404123D01*
X134117111Y-121294529D01*
X134248175Y-121208764D01*
X134393403Y-121150088D01*
X134547261Y-121120738D01*
X134626122Y-121121289D01*
X134626122Y-121121289D01*
G37*
G36*
X145907800Y-122266800D02*
X144305400Y-122266800D01*
X144305400Y-121664400D01*
X145907800Y-121664400D01*
X145907800Y-122266800D01*
X145907800Y-122266800D01*
G37*
G36*
X151807800Y-122266800D02*
X150205400Y-122266800D01*
X150205400Y-121664400D01*
X151807800Y-121664400D01*
X151807800Y-122266800D01*
X151807800Y-122266800D01*
G37*
G36*
X128122715Y-119634677D02*
X128317893Y-119674741D01*
X128317896Y-119674742D01*
X128317895Y-119674742D01*
X128501572Y-119751953D01*
X128666756Y-119863370D01*
X128737450Y-119934560D01*
X128807153Y-120004751D01*
X128917415Y-120170709D01*
X128993343Y-120354923D01*
X129032044Y-120550376D01*
X129028866Y-120777955D01*
X128984723Y-120972251D01*
X128934790Y-121084400D01*
X128903682Y-121154272D01*
X128903681Y-121154273D01*
X128788828Y-121317088D01*
X128788826Y-121317090D01*
X128689161Y-121412000D01*
X128644539Y-121454493D01*
X128476308Y-121561255D01*
X128290545Y-121633308D01*
X128290542Y-121633308D01*
X128290541Y-121633309D01*
X128167777Y-121654955D01*
X128094324Y-121667907D01*
X128094323Y-121667907D01*
X127895122Y-121663735D01*
X127821572Y-121647564D01*
X127700520Y-121620949D01*
X127517936Y-121541180D01*
X127354324Y-121427467D01*
X127225949Y-121294531D01*
X127215914Y-121284139D01*
X127107980Y-121116658D01*
X127034632Y-120931402D01*
X126998664Y-120735431D01*
X126998664Y-120735428D01*
X127001446Y-120536200D01*
X127039977Y-120354925D01*
X127042871Y-120341308D01*
X127121364Y-120158170D01*
X127233931Y-119993769D01*
X127376291Y-119854360D01*
X127543014Y-119745261D01*
X127727753Y-119670621D01*
X127923472Y-119633286D01*
X128122715Y-119634677D01*
X128122715Y-119634677D01*
G37*
G36*
X151807800Y-121616800D02*
X150205400Y-121616800D01*
X150205400Y-121014400D01*
X151807800Y-121014400D01*
X151807800Y-121616800D01*
X151807800Y-121616800D01*
G37*
G36*
X145907800Y-121616800D02*
X144305400Y-121616800D01*
X144305400Y-121014400D01*
X145907800Y-121014400D01*
X145907800Y-121616800D01*
X145907800Y-121616800D01*
G37*
G36*
X155740100Y-121412000D02*
X154089100Y-121412000D01*
X154089100Y-119938800D01*
X155740100Y-119938800D01*
X155740100Y-121412000D01*
X155740100Y-121412000D01*
G37*
G36*
X151807800Y-120966800D02*
X150205400Y-120966800D01*
X150205400Y-120364400D01*
X151807800Y-120364400D01*
X151807800Y-120966800D01*
X151807800Y-120966800D01*
G37*
G36*
X145907800Y-120966800D02*
X144305400Y-120966800D01*
X144305400Y-120364400D01*
X145907800Y-120364400D01*
X145907800Y-120966800D01*
X145907800Y-120966800D01*
G37*
M02*
