G04 #@! TF.FileFunction,Legend,Top*
%FSLAX46Y46*%
G04 Gerber Fmt 4.6, Leading zero omitted, Abs format (unit mm)*
G04 Created by KiCad (PCBNEW 4.0.2-stable) date Monday, September 10, 2018 'AMt' 09:19:22 AM*
%MOMM*%
G01*
G04 APERTURE LIST*
%ADD10C,0.025400*%
%ADD11C,0.076200*%
%ADD12C,0.127000*%
%ADD13C,0.050000*%
%ADD14C,0.200000*%
%ADD15C,0.150000*%
%ADD16C,0.152400*%
%ADD17C,0.101600*%
G04 APERTURE END LIST*
D10*
D11*
X148989143Y-102383167D02*
X149231048Y-102383167D01*
X148940762Y-102528310D02*
X149110095Y-102020310D01*
X149279429Y-102528310D01*
X149424572Y-102068690D02*
X149448762Y-102044500D01*
X149497143Y-102020310D01*
X149618096Y-102020310D01*
X149666477Y-102044500D01*
X149690667Y-102068690D01*
X149714858Y-102117071D01*
X149714858Y-102165452D01*
X149690667Y-102238024D01*
X149400381Y-102528310D01*
X149714858Y-102528310D01*
X144988643Y-102319667D02*
X145230548Y-102319667D01*
X144940262Y-102464810D02*
X145109595Y-101956810D01*
X145278929Y-102464810D01*
X145714358Y-102464810D02*
X145424072Y-102464810D01*
X145569215Y-102464810D02*
X145569215Y-101956810D01*
X145520834Y-102029381D01*
X145472453Y-102077762D01*
X145424072Y-102101952D01*
X141242143Y-102383167D02*
X141484048Y-102383167D01*
X141193762Y-102528310D02*
X141363095Y-102020310D01*
X141532429Y-102528310D01*
X141798524Y-102020310D02*
X141846905Y-102020310D01*
X141895286Y-102044500D01*
X141919477Y-102068690D01*
X141943667Y-102117071D01*
X141967858Y-102213833D01*
X141967858Y-102334786D01*
X141943667Y-102431548D01*
X141919477Y-102479929D01*
X141895286Y-102504119D01*
X141846905Y-102528310D01*
X141798524Y-102528310D01*
X141750143Y-102504119D01*
X141725953Y-102479929D01*
X141701762Y-102431548D01*
X141677572Y-102334786D01*
X141677572Y-102213833D01*
X141701762Y-102117071D01*
X141725953Y-102068690D01*
X141750143Y-102044500D01*
X141798524Y-102020310D01*
X147211143Y-91969167D02*
X147453048Y-91969167D01*
X147162762Y-92114310D02*
X147332095Y-91606310D01*
X147501429Y-92114310D01*
X147646572Y-91654690D02*
X147670762Y-91630500D01*
X147719143Y-91606310D01*
X147840096Y-91606310D01*
X147888477Y-91630500D01*
X147912667Y-91654690D01*
X147936858Y-91703071D01*
X147936858Y-91751452D01*
X147912667Y-91824024D01*
X147622381Y-92114310D01*
X147936858Y-92114310D01*
X143401143Y-91969167D02*
X143643048Y-91969167D01*
X143352762Y-92114310D02*
X143522095Y-91606310D01*
X143691429Y-92114310D01*
X144126858Y-92114310D02*
X143836572Y-92114310D01*
X143981715Y-92114310D02*
X143981715Y-91606310D01*
X143933334Y-91678881D01*
X143884953Y-91727262D01*
X143836572Y-91751452D01*
X139527643Y-91969167D02*
X139769548Y-91969167D01*
X139479262Y-92114310D02*
X139648595Y-91606310D01*
X139817929Y-92114310D01*
X140084024Y-91606310D02*
X140132405Y-91606310D01*
X140180786Y-91630500D01*
X140204977Y-91654690D01*
X140229167Y-91703071D01*
X140253358Y-91799833D01*
X140253358Y-91920786D01*
X140229167Y-92017548D01*
X140204977Y-92065929D01*
X140180786Y-92090119D01*
X140132405Y-92114310D01*
X140084024Y-92114310D01*
X140035643Y-92090119D01*
X140011453Y-92065929D01*
X139987262Y-92017548D01*
X139963072Y-91920786D01*
X139963072Y-91799833D01*
X139987262Y-91703071D01*
X140011453Y-91654690D01*
X140035643Y-91630500D01*
X140084024Y-91606310D01*
D12*
X150739929Y-105056214D02*
X150812501Y-105056214D01*
X150885072Y-105092500D01*
X150921358Y-105128786D01*
X150957644Y-105201357D01*
X150993929Y-105346500D01*
X150993929Y-105527929D01*
X150957644Y-105673071D01*
X150921358Y-105745643D01*
X150885072Y-105781929D01*
X150812501Y-105818214D01*
X150739929Y-105818214D01*
X150667358Y-105781929D01*
X150631072Y-105745643D01*
X150594787Y-105673071D01*
X150558501Y-105527929D01*
X150558501Y-105346500D01*
X150594787Y-105201357D01*
X150631072Y-105128786D01*
X150667358Y-105092500D01*
X150739929Y-105056214D01*
X151320501Y-105745643D02*
X151356786Y-105781929D01*
X151320501Y-105818214D01*
X151284215Y-105781929D01*
X151320501Y-105745643D01*
X151320501Y-105818214D01*
X151610786Y-105056214D02*
X152118786Y-105056214D01*
X151792215Y-105818214D01*
X150803429Y-107532714D02*
X150876001Y-107532714D01*
X150948572Y-107569000D01*
X150984858Y-107605286D01*
X151021144Y-107677857D01*
X151057429Y-107823000D01*
X151057429Y-108004429D01*
X151021144Y-108149571D01*
X150984858Y-108222143D01*
X150948572Y-108258429D01*
X150876001Y-108294714D01*
X150803429Y-108294714D01*
X150730858Y-108258429D01*
X150694572Y-108222143D01*
X150658287Y-108149571D01*
X150622001Y-108004429D01*
X150622001Y-107823000D01*
X150658287Y-107677857D01*
X150694572Y-107605286D01*
X150730858Y-107569000D01*
X150803429Y-107532714D01*
X151384001Y-108222143D02*
X151420286Y-108258429D01*
X151384001Y-108294714D01*
X151347715Y-108258429D01*
X151384001Y-108222143D01*
X151384001Y-108294714D01*
X152073429Y-107532714D02*
X151928286Y-107532714D01*
X151855715Y-107569000D01*
X151819429Y-107605286D01*
X151746858Y-107714143D01*
X151710572Y-107859286D01*
X151710572Y-108149571D01*
X151746858Y-108222143D01*
X151783143Y-108258429D01*
X151855715Y-108294714D01*
X152000858Y-108294714D01*
X152073429Y-108258429D01*
X152109715Y-108222143D01*
X152146000Y-108149571D01*
X152146000Y-107968143D01*
X152109715Y-107895571D01*
X152073429Y-107859286D01*
X152000858Y-107823000D01*
X151855715Y-107823000D01*
X151783143Y-107859286D01*
X151746858Y-107895571D01*
X151710572Y-107968143D01*
X150676429Y-110009214D02*
X150749001Y-110009214D01*
X150821572Y-110045500D01*
X150857858Y-110081786D01*
X150894144Y-110154357D01*
X150930429Y-110299500D01*
X150930429Y-110480929D01*
X150894144Y-110626071D01*
X150857858Y-110698643D01*
X150821572Y-110734929D01*
X150749001Y-110771214D01*
X150676429Y-110771214D01*
X150603858Y-110734929D01*
X150567572Y-110698643D01*
X150531287Y-110626071D01*
X150495001Y-110480929D01*
X150495001Y-110299500D01*
X150531287Y-110154357D01*
X150567572Y-110081786D01*
X150603858Y-110045500D01*
X150676429Y-110009214D01*
X151257001Y-110698643D02*
X151293286Y-110734929D01*
X151257001Y-110771214D01*
X151220715Y-110734929D01*
X151257001Y-110698643D01*
X151257001Y-110771214D01*
X151982715Y-110009214D02*
X151619858Y-110009214D01*
X151583572Y-110372071D01*
X151619858Y-110335786D01*
X151692429Y-110299500D01*
X151873858Y-110299500D01*
X151946429Y-110335786D01*
X151982715Y-110372071D01*
X152019000Y-110444643D01*
X152019000Y-110626071D01*
X151982715Y-110698643D01*
X151946429Y-110734929D01*
X151873858Y-110771214D01*
X151692429Y-110771214D01*
X151619858Y-110734929D01*
X151583572Y-110698643D01*
X150739929Y-112676214D02*
X150812501Y-112676214D01*
X150885072Y-112712500D01*
X150921358Y-112748786D01*
X150957644Y-112821357D01*
X150993929Y-112966500D01*
X150993929Y-113147929D01*
X150957644Y-113293071D01*
X150921358Y-113365643D01*
X150885072Y-113401929D01*
X150812501Y-113438214D01*
X150739929Y-113438214D01*
X150667358Y-113401929D01*
X150631072Y-113365643D01*
X150594787Y-113293071D01*
X150558501Y-113147929D01*
X150558501Y-112966500D01*
X150594787Y-112821357D01*
X150631072Y-112748786D01*
X150667358Y-112712500D01*
X150739929Y-112676214D01*
X151320501Y-113365643D02*
X151356786Y-113401929D01*
X151320501Y-113438214D01*
X151284215Y-113401929D01*
X151320501Y-113365643D01*
X151320501Y-113438214D01*
X152009929Y-112930214D02*
X152009929Y-113438214D01*
X151828500Y-112639929D02*
X151647072Y-113184214D01*
X152118786Y-113184214D01*
X139436929Y-112676214D02*
X139509501Y-112676214D01*
X139582072Y-112712500D01*
X139618358Y-112748786D01*
X139654644Y-112821357D01*
X139690929Y-112966500D01*
X139690929Y-113147929D01*
X139654644Y-113293071D01*
X139618358Y-113365643D01*
X139582072Y-113401929D01*
X139509501Y-113438214D01*
X139436929Y-113438214D01*
X139364358Y-113401929D01*
X139328072Y-113365643D01*
X139291787Y-113293071D01*
X139255501Y-113147929D01*
X139255501Y-112966500D01*
X139291787Y-112821357D01*
X139328072Y-112748786D01*
X139364358Y-112712500D01*
X139436929Y-112676214D01*
X140017501Y-113365643D02*
X140053786Y-113401929D01*
X140017501Y-113438214D01*
X139981215Y-113401929D01*
X140017501Y-113365643D01*
X140017501Y-113438214D01*
X140307786Y-112676214D02*
X140779500Y-112676214D01*
X140525500Y-112966500D01*
X140634358Y-112966500D01*
X140706929Y-113002786D01*
X140743215Y-113039071D01*
X140779500Y-113111643D01*
X140779500Y-113293071D01*
X140743215Y-113365643D01*
X140706929Y-113401929D01*
X140634358Y-113438214D01*
X140416643Y-113438214D01*
X140344072Y-113401929D01*
X140307786Y-113365643D01*
X139436929Y-110072714D02*
X139509501Y-110072714D01*
X139582072Y-110109000D01*
X139618358Y-110145286D01*
X139654644Y-110217857D01*
X139690929Y-110363000D01*
X139690929Y-110544429D01*
X139654644Y-110689571D01*
X139618358Y-110762143D01*
X139582072Y-110798429D01*
X139509501Y-110834714D01*
X139436929Y-110834714D01*
X139364358Y-110798429D01*
X139328072Y-110762143D01*
X139291787Y-110689571D01*
X139255501Y-110544429D01*
X139255501Y-110363000D01*
X139291787Y-110217857D01*
X139328072Y-110145286D01*
X139364358Y-110109000D01*
X139436929Y-110072714D01*
X140017501Y-110762143D02*
X140053786Y-110798429D01*
X140017501Y-110834714D01*
X139981215Y-110798429D01*
X140017501Y-110762143D01*
X140017501Y-110834714D01*
X140344072Y-110145286D02*
X140380358Y-110109000D01*
X140452929Y-110072714D01*
X140634358Y-110072714D01*
X140706929Y-110109000D01*
X140743215Y-110145286D01*
X140779500Y-110217857D01*
X140779500Y-110290429D01*
X140743215Y-110399286D01*
X140307786Y-110834714D01*
X140779500Y-110834714D01*
X139436929Y-107532714D02*
X139509501Y-107532714D01*
X139582072Y-107569000D01*
X139618358Y-107605286D01*
X139654644Y-107677857D01*
X139690929Y-107823000D01*
X139690929Y-108004429D01*
X139654644Y-108149571D01*
X139618358Y-108222143D01*
X139582072Y-108258429D01*
X139509501Y-108294714D01*
X139436929Y-108294714D01*
X139364358Y-108258429D01*
X139328072Y-108222143D01*
X139291787Y-108149571D01*
X139255501Y-108004429D01*
X139255501Y-107823000D01*
X139291787Y-107677857D01*
X139328072Y-107605286D01*
X139364358Y-107569000D01*
X139436929Y-107532714D01*
X140017501Y-108222143D02*
X140053786Y-108258429D01*
X140017501Y-108294714D01*
X139981215Y-108258429D01*
X140017501Y-108222143D01*
X140017501Y-108294714D01*
X140779500Y-108294714D02*
X140344072Y-108294714D01*
X140561786Y-108294714D02*
X140561786Y-107532714D01*
X140489215Y-107641571D01*
X140416643Y-107714143D01*
X140344072Y-107750429D01*
X139373429Y-104865714D02*
X139446001Y-104865714D01*
X139518572Y-104902000D01*
X139554858Y-104938286D01*
X139591144Y-105010857D01*
X139627429Y-105156000D01*
X139627429Y-105337429D01*
X139591144Y-105482571D01*
X139554858Y-105555143D01*
X139518572Y-105591429D01*
X139446001Y-105627714D01*
X139373429Y-105627714D01*
X139300858Y-105591429D01*
X139264572Y-105555143D01*
X139228287Y-105482571D01*
X139192001Y-105337429D01*
X139192001Y-105156000D01*
X139228287Y-105010857D01*
X139264572Y-104938286D01*
X139300858Y-104902000D01*
X139373429Y-104865714D01*
X139954001Y-105555143D02*
X139990286Y-105591429D01*
X139954001Y-105627714D01*
X139917715Y-105591429D01*
X139954001Y-105555143D01*
X139954001Y-105627714D01*
X140462000Y-104865714D02*
X140534572Y-104865714D01*
X140607143Y-104902000D01*
X140643429Y-104938286D01*
X140679715Y-105010857D01*
X140716000Y-105156000D01*
X140716000Y-105337429D01*
X140679715Y-105482571D01*
X140643429Y-105555143D01*
X140607143Y-105591429D01*
X140534572Y-105627714D01*
X140462000Y-105627714D01*
X140389429Y-105591429D01*
X140353143Y-105555143D01*
X140316858Y-105482571D01*
X140280572Y-105337429D01*
X140280572Y-105156000D01*
X140316858Y-105010857D01*
X140353143Y-104938286D01*
X140389429Y-104902000D01*
X140462000Y-104865714D01*
X151247929Y-94515214D02*
X150812501Y-94515214D01*
X151030215Y-94515214D02*
X151030215Y-93753214D01*
X150957644Y-93862071D01*
X150885072Y-93934643D01*
X150812501Y-93970929D01*
X151574501Y-94442643D02*
X151610786Y-94478929D01*
X151574501Y-94515214D01*
X151538215Y-94478929D01*
X151574501Y-94442643D01*
X151574501Y-94515214D01*
X151864786Y-93753214D02*
X152372786Y-93753214D01*
X152046215Y-94515214D01*
X151247929Y-96864714D02*
X150812501Y-96864714D01*
X151030215Y-96864714D02*
X151030215Y-96102714D01*
X150957644Y-96211571D01*
X150885072Y-96284143D01*
X150812501Y-96320429D01*
X151574501Y-96792143D02*
X151610786Y-96828429D01*
X151574501Y-96864714D01*
X151538215Y-96828429D01*
X151574501Y-96792143D01*
X151574501Y-96864714D01*
X152263929Y-96102714D02*
X152118786Y-96102714D01*
X152046215Y-96139000D01*
X152009929Y-96175286D01*
X151937358Y-96284143D01*
X151901072Y-96429286D01*
X151901072Y-96719571D01*
X151937358Y-96792143D01*
X151973643Y-96828429D01*
X152046215Y-96864714D01*
X152191358Y-96864714D01*
X152263929Y-96828429D01*
X152300215Y-96792143D01*
X152336500Y-96719571D01*
X152336500Y-96538143D01*
X152300215Y-96465571D01*
X152263929Y-96429286D01*
X152191358Y-96393000D01*
X152046215Y-96393000D01*
X151973643Y-96429286D01*
X151937358Y-96465571D01*
X151901072Y-96538143D01*
X151184429Y-99468214D02*
X150749001Y-99468214D01*
X150966715Y-99468214D02*
X150966715Y-98706214D01*
X150894144Y-98815071D01*
X150821572Y-98887643D01*
X150749001Y-98923929D01*
X151511001Y-99395643D02*
X151547286Y-99431929D01*
X151511001Y-99468214D01*
X151474715Y-99431929D01*
X151511001Y-99395643D01*
X151511001Y-99468214D01*
X152236715Y-98706214D02*
X151873858Y-98706214D01*
X151837572Y-99069071D01*
X151873858Y-99032786D01*
X151946429Y-98996500D01*
X152127858Y-98996500D01*
X152200429Y-99032786D01*
X152236715Y-99069071D01*
X152273000Y-99141643D01*
X152273000Y-99323071D01*
X152236715Y-99395643D01*
X152200429Y-99431929D01*
X152127858Y-99468214D01*
X151946429Y-99468214D01*
X151873858Y-99431929D01*
X151837572Y-99395643D01*
X151184429Y-102135214D02*
X150749001Y-102135214D01*
X150966715Y-102135214D02*
X150966715Y-101373214D01*
X150894144Y-101482071D01*
X150821572Y-101554643D01*
X150749001Y-101590929D01*
X151511001Y-102062643D02*
X151547286Y-102098929D01*
X151511001Y-102135214D01*
X151474715Y-102098929D01*
X151511001Y-102062643D01*
X151511001Y-102135214D01*
X152200429Y-101627214D02*
X152200429Y-102135214D01*
X152019000Y-101336929D02*
X151837572Y-101881214D01*
X152309286Y-101881214D01*
X139563929Y-102071714D02*
X139128501Y-102071714D01*
X139346215Y-102071714D02*
X139346215Y-101309714D01*
X139273644Y-101418571D01*
X139201072Y-101491143D01*
X139128501Y-101527429D01*
X139890501Y-101999143D02*
X139926786Y-102035429D01*
X139890501Y-102071714D01*
X139854215Y-102035429D01*
X139890501Y-101999143D01*
X139890501Y-102071714D01*
X140180786Y-101309714D02*
X140652500Y-101309714D01*
X140398500Y-101600000D01*
X140507358Y-101600000D01*
X140579929Y-101636286D01*
X140616215Y-101672571D01*
X140652500Y-101745143D01*
X140652500Y-101926571D01*
X140616215Y-101999143D01*
X140579929Y-102035429D01*
X140507358Y-102071714D01*
X140289643Y-102071714D01*
X140217072Y-102035429D01*
X140180786Y-101999143D01*
X139627429Y-99468214D02*
X139192001Y-99468214D01*
X139409715Y-99468214D02*
X139409715Y-98706214D01*
X139337144Y-98815071D01*
X139264572Y-98887643D01*
X139192001Y-98923929D01*
X139954001Y-99395643D02*
X139990286Y-99431929D01*
X139954001Y-99468214D01*
X139917715Y-99431929D01*
X139954001Y-99395643D01*
X139954001Y-99468214D01*
X140280572Y-98778786D02*
X140316858Y-98742500D01*
X140389429Y-98706214D01*
X140570858Y-98706214D01*
X140643429Y-98742500D01*
X140679715Y-98778786D01*
X140716000Y-98851357D01*
X140716000Y-98923929D01*
X140679715Y-99032786D01*
X140244286Y-99468214D01*
X140716000Y-99468214D01*
X139563929Y-96991714D02*
X139128501Y-96991714D01*
X139346215Y-96991714D02*
X139346215Y-96229714D01*
X139273644Y-96338571D01*
X139201072Y-96411143D01*
X139128501Y-96447429D01*
X139890501Y-96919143D02*
X139926786Y-96955429D01*
X139890501Y-96991714D01*
X139854215Y-96955429D01*
X139890501Y-96919143D01*
X139890501Y-96991714D01*
X140652500Y-96991714D02*
X140217072Y-96991714D01*
X140434786Y-96991714D02*
X140434786Y-96229714D01*
X140362215Y-96338571D01*
X140289643Y-96411143D01*
X140217072Y-96447429D01*
X139436929Y-94261214D02*
X139001501Y-94261214D01*
X139219215Y-94261214D02*
X139219215Y-93499214D01*
X139146644Y-93608071D01*
X139074072Y-93680643D01*
X139001501Y-93716929D01*
X139763501Y-94188643D02*
X139799786Y-94224929D01*
X139763501Y-94261214D01*
X139727215Y-94224929D01*
X139763501Y-94188643D01*
X139763501Y-94261214D01*
X140271500Y-93499214D02*
X140344072Y-93499214D01*
X140416643Y-93535500D01*
X140452929Y-93571786D01*
X140489215Y-93644357D01*
X140525500Y-93789500D01*
X140525500Y-93970929D01*
X140489215Y-94116071D01*
X140452929Y-94188643D01*
X140416643Y-94224929D01*
X140344072Y-94261214D01*
X140271500Y-94261214D01*
X140198929Y-94224929D01*
X140162643Y-94188643D01*
X140126358Y-94116071D01*
X140090072Y-93970929D01*
X140090072Y-93789500D01*
X140126358Y-93644357D01*
X140162643Y-93571786D01*
X140198929Y-93535500D01*
X140271500Y-93499214D01*
D13*
X133658720Y-125940357D02*
X133658720Y-126345119D01*
X133634911Y-126392738D01*
X133611101Y-126416548D01*
X133563482Y-126440357D01*
X133492054Y-126440357D01*
X133444435Y-126416548D01*
X133658720Y-126249881D02*
X133611101Y-126273690D01*
X133515863Y-126273690D01*
X133468244Y-126249881D01*
X133444435Y-126226071D01*
X133420625Y-126178452D01*
X133420625Y-126035595D01*
X133444435Y-125987976D01*
X133468244Y-125964167D01*
X133515863Y-125940357D01*
X133611101Y-125940357D01*
X133658720Y-125964167D01*
X134230149Y-126321310D02*
X134182530Y-126297500D01*
X134134911Y-126249881D01*
X134063482Y-126178452D01*
X134015863Y-126154643D01*
X133968244Y-126154643D01*
X133992054Y-126273690D02*
X133944435Y-126249881D01*
X133896816Y-126202262D01*
X133873006Y-126107024D01*
X133873006Y-125940357D01*
X133896816Y-125845119D01*
X133944435Y-125797500D01*
X133992054Y-125773690D01*
X134087292Y-125773690D01*
X134134911Y-125797500D01*
X134182530Y-125845119D01*
X134206339Y-125940357D01*
X134206339Y-126107024D01*
X134182530Y-126202262D01*
X134134911Y-126249881D01*
X134087292Y-126273690D01*
X133992054Y-126273690D01*
X134634911Y-125940357D02*
X134634911Y-126273690D01*
X134420626Y-125940357D02*
X134420626Y-126202262D01*
X134444435Y-126249881D01*
X134492054Y-126273690D01*
X134563483Y-126273690D01*
X134611102Y-126249881D01*
X134634911Y-126226071D01*
X134873007Y-126273690D02*
X134873007Y-125940357D01*
X134873007Y-125773690D02*
X134849197Y-125797500D01*
X134873007Y-125821310D01*
X134896816Y-125797500D01*
X134873007Y-125773690D01*
X134873007Y-125821310D01*
X135111102Y-125940357D02*
X135111102Y-126273690D01*
X135111102Y-125987976D02*
X135134911Y-125964167D01*
X135182530Y-125940357D01*
X135253959Y-125940357D01*
X135301578Y-125964167D01*
X135325387Y-126011786D01*
X135325387Y-126273690D01*
X135492054Y-125940357D02*
X135682530Y-125940357D01*
X135563483Y-125773690D02*
X135563483Y-126202262D01*
X135587292Y-126249881D01*
X135634911Y-126273690D01*
X135682530Y-126273690D01*
X135849197Y-126273690D02*
X135849197Y-125940357D01*
X135849197Y-125773690D02*
X135825387Y-125797500D01*
X135849197Y-125821310D01*
X135873006Y-125797500D01*
X135849197Y-125773690D01*
X135849197Y-125821310D01*
X136301577Y-126249881D02*
X136253958Y-126273690D01*
X136158720Y-126273690D01*
X136111101Y-126249881D01*
X136087292Y-126226071D01*
X136063482Y-126178452D01*
X136063482Y-126035595D01*
X136087292Y-125987976D01*
X136111101Y-125964167D01*
X136158720Y-125940357D01*
X136253958Y-125940357D01*
X136301577Y-125964167D01*
X136896815Y-126011786D02*
X137063481Y-126011786D01*
X137134910Y-126273690D02*
X136896815Y-126273690D01*
X136896815Y-125773690D01*
X137134910Y-125773690D01*
X137349196Y-126011786D02*
X137515862Y-126011786D01*
X137587291Y-126273690D02*
X137349196Y-126273690D01*
X137349196Y-125773690D01*
X137587291Y-125773690D01*
X137801577Y-126273690D02*
X137801577Y-125773690D01*
X137992053Y-125773690D01*
X138039672Y-125797500D01*
X138063481Y-125821310D01*
X138087291Y-125868929D01*
X138087291Y-125940357D01*
X138063481Y-125987976D01*
X138039672Y-126011786D01*
X137992053Y-126035595D01*
X137801577Y-126035595D01*
X138587291Y-126273690D02*
X138420624Y-126035595D01*
X138301577Y-126273690D02*
X138301577Y-125773690D01*
X138492053Y-125773690D01*
X138539672Y-125797500D01*
X138563481Y-125821310D01*
X138587291Y-125868929D01*
X138587291Y-125940357D01*
X138563481Y-125987976D01*
X138539672Y-126011786D01*
X138492053Y-126035595D01*
X138301577Y-126035595D01*
X138896815Y-125773690D02*
X138992053Y-125773690D01*
X139039672Y-125797500D01*
X139087291Y-125845119D01*
X139111100Y-125940357D01*
X139111100Y-126107024D01*
X139087291Y-126202262D01*
X139039672Y-126249881D01*
X138992053Y-126273690D01*
X138896815Y-126273690D01*
X138849196Y-126249881D01*
X138801577Y-126202262D01*
X138777767Y-126107024D01*
X138777767Y-125940357D01*
X138801577Y-125845119D01*
X138849196Y-125797500D01*
X138896815Y-125773690D01*
X139325387Y-126273690D02*
X139325387Y-125773690D01*
X139492053Y-126130833D01*
X139658720Y-125773690D01*
X139658720Y-126273690D01*
X140253958Y-126130833D02*
X140492053Y-126130833D01*
X140206339Y-126273690D02*
X140373006Y-125773690D01*
X140539672Y-126273690D01*
X140920624Y-126273690D02*
X140920624Y-125773690D01*
X140920624Y-126249881D02*
X140873005Y-126273690D01*
X140777767Y-126273690D01*
X140730148Y-126249881D01*
X140706339Y-126226071D01*
X140682529Y-126178452D01*
X140682529Y-126035595D01*
X140706339Y-125987976D01*
X140730148Y-125964167D01*
X140777767Y-125940357D01*
X140873005Y-125940357D01*
X140920624Y-125964167D01*
X141373005Y-126273690D02*
X141373005Y-126011786D01*
X141349196Y-125964167D01*
X141301577Y-125940357D01*
X141206339Y-125940357D01*
X141158720Y-125964167D01*
X141373005Y-126249881D02*
X141325386Y-126273690D01*
X141206339Y-126273690D01*
X141158720Y-126249881D01*
X141134910Y-126202262D01*
X141134910Y-126154643D01*
X141158720Y-126107024D01*
X141206339Y-126083214D01*
X141325386Y-126083214D01*
X141373005Y-126059405D01*
X141611101Y-125940357D02*
X141611101Y-126440357D01*
X141611101Y-125964167D02*
X141658720Y-125940357D01*
X141753958Y-125940357D01*
X141801577Y-125964167D01*
X141825386Y-125987976D01*
X141849196Y-126035595D01*
X141849196Y-126178452D01*
X141825386Y-126226071D01*
X141801577Y-126249881D01*
X141753958Y-126273690D01*
X141658720Y-126273690D01*
X141611101Y-126249881D01*
X141992053Y-125940357D02*
X142182529Y-125940357D01*
X142063482Y-125773690D02*
X142063482Y-126202262D01*
X142087291Y-126249881D01*
X142134910Y-126273690D01*
X142182529Y-126273690D01*
X142539672Y-126249881D02*
X142492053Y-126273690D01*
X142396815Y-126273690D01*
X142349196Y-126249881D01*
X142325386Y-126202262D01*
X142325386Y-126011786D01*
X142349196Y-125964167D01*
X142396815Y-125940357D01*
X142492053Y-125940357D01*
X142539672Y-125964167D01*
X142563481Y-126011786D01*
X142563481Y-126059405D01*
X142325386Y-126107024D01*
X142777767Y-126273690D02*
X142777767Y-125940357D01*
X142777767Y-126035595D02*
X142801576Y-125987976D01*
X142825386Y-125964167D01*
X142873005Y-125940357D01*
X142920624Y-125940357D01*
X143468243Y-126083214D02*
X143849195Y-126083214D01*
X144468243Y-126273690D02*
X144468243Y-125940357D01*
X144468243Y-126035595D02*
X144492052Y-125987976D01*
X144515862Y-125964167D01*
X144563481Y-125940357D01*
X144611100Y-125940357D01*
X144968243Y-126249881D02*
X144920624Y-126273690D01*
X144825386Y-126273690D01*
X144777767Y-126249881D01*
X144753957Y-126202262D01*
X144753957Y-126011786D01*
X144777767Y-125964167D01*
X144825386Y-125940357D01*
X144920624Y-125940357D01*
X144968243Y-125964167D01*
X144992052Y-126011786D01*
X144992052Y-126059405D01*
X144753957Y-126107024D01*
X145158719Y-125940357D02*
X145277766Y-126273690D01*
X145396814Y-125940357D01*
X145563480Y-126130833D02*
X145801575Y-126130833D01*
X145515861Y-126273690D02*
X145682528Y-125773690D01*
X145849194Y-126273690D01*
D14*
X155371800Y-123799600D02*
G75*
G03X155371800Y-123799600I-254000J0D01*
G01*
D15*
X147320000Y-126746000D02*
X140970000Y-126746000D01*
X129540000Y-126746000D02*
X129540000Y-119634000D01*
X147320000Y-126746000D02*
X147320000Y-119634000D01*
X135890000Y-126746000D02*
X129540000Y-126746000D01*
X129540000Y-119634000D02*
X147320000Y-119634000D01*
X142220000Y-126746000D02*
X135870000Y-126746000D01*
X131826000Y-124460000D02*
X130556000Y-123698000D01*
X130556000Y-123698000D02*
X130556000Y-125222000D01*
X130556000Y-125222000D02*
X131826000Y-124460000D01*
X154191600Y-123265600D02*
X154191600Y-123165600D01*
X149541600Y-123265600D02*
X149541600Y-123065600D01*
X149541600Y-120015600D02*
X149541600Y-120215600D01*
X154191600Y-120015600D02*
X154191600Y-120215600D01*
X154191600Y-123265600D02*
X149541600Y-123265600D01*
X154191600Y-120015600D02*
X149541600Y-120015600D01*
X154191600Y-123165600D02*
X155541600Y-123165600D01*
D16*
X157861000Y-123774200D02*
X159588200Y-123774200D01*
X157607000Y-124028200D02*
X157607000Y-125552200D01*
X159842200Y-124028200D02*
X159842200Y-125552200D01*
X159588200Y-125806200D02*
X157861000Y-125806200D01*
X157607000Y-125552200D02*
G75*
G03X157861000Y-125806200I254000J0D01*
G01*
X159588200Y-125806200D02*
G75*
G03X159842200Y-125552200I0J254000D01*
G01*
X159842200Y-124028200D02*
G75*
G03X159588200Y-123774200I-254000J0D01*
G01*
X157861000Y-123774200D02*
G75*
G03X157607000Y-124028200I0J-254000D01*
G01*
X157861000Y-121742200D02*
X159588200Y-121742200D01*
X157607000Y-121996200D02*
X157607000Y-123520200D01*
X159842200Y-121996200D02*
X159842200Y-123520200D01*
X159588200Y-123774200D02*
X157861000Y-123774200D01*
X157607000Y-123520200D02*
G75*
G03X157861000Y-123774200I254000J0D01*
G01*
X159588200Y-123774200D02*
G75*
G03X159842200Y-123520200I0J254000D01*
G01*
X159842200Y-121996200D02*
G75*
G03X159588200Y-121742200I-254000J0D01*
G01*
X157861000Y-121742200D02*
G75*
G03X157607000Y-121996200I0J-254000D01*
G01*
X157861000Y-119659400D02*
X159588200Y-119659400D01*
X157607000Y-119913400D02*
X157607000Y-121437400D01*
X159842200Y-119913400D02*
X159842200Y-121437400D01*
X159588200Y-121691400D02*
X157861000Y-121691400D01*
X157607000Y-121437400D02*
G75*
G03X157861000Y-121691400I254000J0D01*
G01*
X159588200Y-121691400D02*
G75*
G03X159842200Y-121437400I0J254000D01*
G01*
X159842200Y-119913400D02*
G75*
G03X159588200Y-119659400I-254000J0D01*
G01*
X157861000Y-119659400D02*
G75*
G03X157607000Y-119913400I0J-254000D01*
G01*
D15*
X133477000Y-106680000D02*
X138557000Y-106680000D01*
X138557000Y-106680000D02*
X138557000Y-104140000D01*
X138557000Y-104140000D02*
X133477000Y-104140000D01*
X130657000Y-103860000D02*
X132207000Y-103860000D01*
X133477000Y-104140000D02*
X133477000Y-106680000D01*
X132207000Y-106960000D02*
X130657000Y-106960000D01*
X130657000Y-106960000D02*
X130657000Y-103860000D01*
X133477000Y-109220000D02*
X138557000Y-109220000D01*
X138557000Y-109220000D02*
X138557000Y-106680000D01*
X138557000Y-106680000D02*
X133477000Y-106680000D01*
X130657000Y-106400000D02*
X132207000Y-106400000D01*
X133477000Y-106680000D02*
X133477000Y-109220000D01*
X132207000Y-109500000D02*
X130657000Y-109500000D01*
X130657000Y-109500000D02*
X130657000Y-106400000D01*
X133477000Y-111760000D02*
X138557000Y-111760000D01*
X138557000Y-111760000D02*
X138557000Y-109220000D01*
X138557000Y-109220000D02*
X133477000Y-109220000D01*
X130657000Y-108940000D02*
X132207000Y-108940000D01*
X133477000Y-109220000D02*
X133477000Y-111760000D01*
X132207000Y-112040000D02*
X130657000Y-112040000D01*
X130657000Y-112040000D02*
X130657000Y-108940000D01*
X133477000Y-114300000D02*
X138557000Y-114300000D01*
X138557000Y-114300000D02*
X138557000Y-111760000D01*
X138557000Y-111760000D02*
X133477000Y-111760000D01*
X130657000Y-111480000D02*
X132207000Y-111480000D01*
X133477000Y-111760000D02*
X133477000Y-114300000D01*
X132207000Y-114580000D02*
X130657000Y-114580000D01*
X130657000Y-114580000D02*
X130657000Y-111480000D01*
X155448000Y-114300000D02*
X160528000Y-114300000D01*
X160528000Y-114300000D02*
X160528000Y-111760000D01*
X160528000Y-111760000D02*
X155448000Y-111760000D01*
X152628000Y-111480000D02*
X154178000Y-111480000D01*
X155448000Y-111760000D02*
X155448000Y-114300000D01*
X154178000Y-114580000D02*
X152628000Y-114580000D01*
X152628000Y-114580000D02*
X152628000Y-111480000D01*
X155448000Y-111760000D02*
X160528000Y-111760000D01*
X160528000Y-111760000D02*
X160528000Y-109220000D01*
X160528000Y-109220000D02*
X155448000Y-109220000D01*
X152628000Y-108940000D02*
X154178000Y-108940000D01*
X155448000Y-109220000D02*
X155448000Y-111760000D01*
X154178000Y-112040000D02*
X152628000Y-112040000D01*
X152628000Y-112040000D02*
X152628000Y-108940000D01*
X155448000Y-109220000D02*
X160528000Y-109220000D01*
X160528000Y-109220000D02*
X160528000Y-106680000D01*
X160528000Y-106680000D02*
X155448000Y-106680000D01*
X152628000Y-106400000D02*
X154178000Y-106400000D01*
X155448000Y-106680000D02*
X155448000Y-109220000D01*
X154178000Y-109500000D02*
X152628000Y-109500000D01*
X152628000Y-109500000D02*
X152628000Y-106400000D01*
X155448000Y-106680000D02*
X160528000Y-106680000D01*
X160528000Y-106680000D02*
X160528000Y-104140000D01*
X160528000Y-104140000D02*
X155448000Y-104140000D01*
X152628000Y-103860000D02*
X154178000Y-103860000D01*
X155448000Y-104140000D02*
X155448000Y-106680000D01*
X154178000Y-106960000D02*
X152628000Y-106960000D01*
X152628000Y-106960000D02*
X152628000Y-103860000D01*
X133477000Y-95250000D02*
X138557000Y-95250000D01*
X138557000Y-95250000D02*
X138557000Y-92710000D01*
X138557000Y-92710000D02*
X133477000Y-92710000D01*
X130657000Y-92430000D02*
X132207000Y-92430000D01*
X133477000Y-92710000D02*
X133477000Y-95250000D01*
X132207000Y-95530000D02*
X130657000Y-95530000D01*
X130657000Y-95530000D02*
X130657000Y-92430000D01*
X133477000Y-97790000D02*
X138557000Y-97790000D01*
X138557000Y-97790000D02*
X138557000Y-95250000D01*
X138557000Y-95250000D02*
X133477000Y-95250000D01*
X130657000Y-94970000D02*
X132207000Y-94970000D01*
X133477000Y-95250000D02*
X133477000Y-97790000D01*
X132207000Y-98070000D02*
X130657000Y-98070000D01*
X130657000Y-98070000D02*
X130657000Y-94970000D01*
X133477000Y-100330000D02*
X138557000Y-100330000D01*
X138557000Y-100330000D02*
X138557000Y-97790000D01*
X138557000Y-97790000D02*
X133477000Y-97790000D01*
X130657000Y-97510000D02*
X132207000Y-97510000D01*
X133477000Y-97790000D02*
X133477000Y-100330000D01*
X132207000Y-100610000D02*
X130657000Y-100610000D01*
X130657000Y-100610000D02*
X130657000Y-97510000D01*
X133477000Y-102870000D02*
X138557000Y-102870000D01*
X138557000Y-102870000D02*
X138557000Y-100330000D01*
X138557000Y-100330000D02*
X133477000Y-100330000D01*
X130657000Y-100050000D02*
X132207000Y-100050000D01*
X133477000Y-100330000D02*
X133477000Y-102870000D01*
X132207000Y-103150000D02*
X130657000Y-103150000D01*
X130657000Y-103150000D02*
X130657000Y-100050000D01*
X155448000Y-102870000D02*
X160528000Y-102870000D01*
X160528000Y-102870000D02*
X160528000Y-100330000D01*
X160528000Y-100330000D02*
X155448000Y-100330000D01*
X152628000Y-100050000D02*
X154178000Y-100050000D01*
X155448000Y-100330000D02*
X155448000Y-102870000D01*
X154178000Y-103150000D02*
X152628000Y-103150000D01*
X152628000Y-103150000D02*
X152628000Y-100050000D01*
X155448000Y-100330000D02*
X160528000Y-100330000D01*
X160528000Y-100330000D02*
X160528000Y-97790000D01*
X160528000Y-97790000D02*
X155448000Y-97790000D01*
X152628000Y-97510000D02*
X154178000Y-97510000D01*
X155448000Y-97790000D02*
X155448000Y-100330000D01*
X154178000Y-100610000D02*
X152628000Y-100610000D01*
X152628000Y-100610000D02*
X152628000Y-97510000D01*
X155448000Y-97790000D02*
X160528000Y-97790000D01*
X160528000Y-97790000D02*
X160528000Y-95250000D01*
X160528000Y-95250000D02*
X155448000Y-95250000D01*
X152628000Y-94970000D02*
X154178000Y-94970000D01*
X155448000Y-95250000D02*
X155448000Y-97790000D01*
X154178000Y-98070000D02*
X152628000Y-98070000D01*
X152628000Y-98070000D02*
X152628000Y-94970000D01*
X155448000Y-95250000D02*
X160528000Y-95250000D01*
X160528000Y-95250000D02*
X160528000Y-92710000D01*
X160528000Y-92710000D02*
X155448000Y-92710000D01*
X152628000Y-92430000D02*
X154178000Y-92430000D01*
X155448000Y-92710000D02*
X155448000Y-95250000D01*
X154178000Y-95530000D02*
X152628000Y-95530000D01*
X152628000Y-95530000D02*
X152628000Y-92430000D01*
D16*
X144957800Y-117627400D02*
X143230600Y-117627400D01*
X145211800Y-117373400D02*
X145211800Y-115849400D01*
X142976600Y-117373400D02*
X142976600Y-115849400D01*
X143230600Y-115595400D02*
X144957800Y-115595400D01*
X145211800Y-115849400D02*
G75*
G03X144957800Y-115595400I-254000J0D01*
G01*
X143230600Y-115595400D02*
G75*
G03X142976600Y-115849400I0J-254000D01*
G01*
X142976600Y-117373400D02*
G75*
G03X143230600Y-117627400I254000J0D01*
G01*
X144957800Y-117627400D02*
G75*
G03X145211800Y-117373400I0J254000D01*
G01*
X140411200Y-110845600D02*
X141427200Y-110845600D01*
X149402800Y-107594400D02*
X150418800Y-107594400D01*
X143484600Y-112522000D02*
X147345400Y-112522000D01*
X147345400Y-104597200D02*
X145719800Y-104597200D01*
X145719800Y-104597200D02*
X145110200Y-104597200D01*
X145110200Y-104597200D02*
X143484600Y-104597200D01*
X145719800Y-104597200D02*
G75*
G02X145110200Y-104597200I-304800J0D01*
G01*
X140411200Y-100076000D02*
X141427200Y-100076000D01*
X149402800Y-96824800D02*
X150418800Y-96824800D01*
X143484600Y-101752400D02*
X147345400Y-101752400D01*
X147345400Y-93827600D02*
X145719800Y-93827600D01*
X145719800Y-93827600D02*
X145110200Y-93827600D01*
X145110200Y-93827600D02*
X143484600Y-93827600D01*
X145719800Y-93827600D02*
G75*
G02X145110200Y-93827600I-304800J0D01*
G01*
D15*
X149395200Y-125141800D02*
X149395200Y-124641800D01*
X148445200Y-124641800D02*
X148445200Y-125141800D01*
X129282000Y-104173000D02*
X128782000Y-104173000D01*
X128782000Y-105123000D02*
X129282000Y-105123000D01*
X129155000Y-92743000D02*
X128655000Y-92743000D01*
X128655000Y-93693000D02*
X129155000Y-93693000D01*
X129282000Y-105443000D02*
X128782000Y-105443000D01*
X128782000Y-106393000D02*
X129282000Y-106393000D01*
X129155000Y-94013000D02*
X128655000Y-94013000D01*
X128655000Y-94963000D02*
X129155000Y-94963000D01*
X129282000Y-106713000D02*
X128782000Y-106713000D01*
X128782000Y-107663000D02*
X129282000Y-107663000D01*
X129155000Y-95283000D02*
X128655000Y-95283000D01*
X128655000Y-96233000D02*
X129155000Y-96233000D01*
X129282000Y-107983000D02*
X128782000Y-107983000D01*
X128782000Y-108933000D02*
X129282000Y-108933000D01*
X129155000Y-96553000D02*
X128655000Y-96553000D01*
X128655000Y-97503000D02*
X129155000Y-97503000D01*
X129282000Y-109253000D02*
X128782000Y-109253000D01*
X128782000Y-110203000D02*
X129282000Y-110203000D01*
X129155000Y-97823000D02*
X128655000Y-97823000D01*
X128655000Y-98773000D02*
X129155000Y-98773000D01*
X129282000Y-110523000D02*
X128782000Y-110523000D01*
X128782000Y-111473000D02*
X129282000Y-111473000D01*
X129155000Y-99093000D02*
X128655000Y-99093000D01*
X128655000Y-100043000D02*
X129155000Y-100043000D01*
X129282000Y-111793000D02*
X128782000Y-111793000D01*
X128782000Y-112743000D02*
X129282000Y-112743000D01*
X129155000Y-100363000D02*
X128655000Y-100363000D01*
X128655000Y-101313000D02*
X129155000Y-101313000D01*
X129282000Y-113063000D02*
X128782000Y-113063000D01*
X128782000Y-114013000D02*
X129282000Y-114013000D01*
X129155000Y-101633000D02*
X128655000Y-101633000D01*
X128655000Y-102583000D02*
X129155000Y-102583000D01*
X162056000Y-114267000D02*
X162556000Y-114267000D01*
X162556000Y-113317000D02*
X162056000Y-113317000D01*
X162056000Y-102710000D02*
X162556000Y-102710000D01*
X162556000Y-101760000D02*
X162056000Y-101760000D01*
X162056000Y-112997000D02*
X162556000Y-112997000D01*
X162556000Y-112047000D02*
X162056000Y-112047000D01*
X162056000Y-101440000D02*
X162556000Y-101440000D01*
X162556000Y-100490000D02*
X162056000Y-100490000D01*
X162056000Y-111727000D02*
X162556000Y-111727000D01*
X162556000Y-110777000D02*
X162056000Y-110777000D01*
X162056000Y-100170000D02*
X162556000Y-100170000D01*
X162556000Y-99220000D02*
X162056000Y-99220000D01*
X162056000Y-110457000D02*
X162556000Y-110457000D01*
X162556000Y-109507000D02*
X162056000Y-109507000D01*
X162056000Y-98900000D02*
X162556000Y-98900000D01*
X162556000Y-97950000D02*
X162056000Y-97950000D01*
X162056000Y-109060000D02*
X162556000Y-109060000D01*
X162556000Y-108110000D02*
X162056000Y-108110000D01*
X162056000Y-97630000D02*
X162556000Y-97630000D01*
X162556000Y-96680000D02*
X162056000Y-96680000D01*
X162056000Y-107790000D02*
X162556000Y-107790000D01*
X162556000Y-106840000D02*
X162056000Y-106840000D01*
X162056000Y-96360000D02*
X162556000Y-96360000D01*
X162556000Y-95410000D02*
X162056000Y-95410000D01*
X162056000Y-106520000D02*
X162556000Y-106520000D01*
X162556000Y-105570000D02*
X162056000Y-105570000D01*
X162056000Y-95090000D02*
X162556000Y-95090000D01*
X162556000Y-94140000D02*
X162056000Y-94140000D01*
X162056000Y-105250000D02*
X162556000Y-105250000D01*
X162556000Y-104300000D02*
X162056000Y-104300000D01*
X162056000Y-93820000D02*
X162556000Y-93820000D01*
X162556000Y-92870000D02*
X162056000Y-92870000D01*
X153220400Y-124743400D02*
X153220400Y-125243400D01*
X154170400Y-125243400D02*
X154170400Y-124743400D01*
X151975800Y-124743400D02*
X151975800Y-125243400D01*
X152925800Y-125243400D02*
X152925800Y-124743400D01*
X150694200Y-94140000D02*
X150194200Y-94140000D01*
X150194200Y-95090000D02*
X150694200Y-95090000D01*
X150872000Y-104490500D02*
X150372000Y-104490500D01*
X150372000Y-105440500D02*
X150872000Y-105440500D01*
X141595000Y-115540000D02*
X141595000Y-118080000D01*
X141595000Y-115540000D02*
X139055000Y-115540000D01*
X139055000Y-115540000D02*
X139055000Y-118080000D01*
X139055000Y-118080000D02*
X141595000Y-118080000D01*
D17*
X150108557Y-125636262D02*
X150259748Y-126271262D01*
X150380700Y-125817690D01*
X150501653Y-126271262D01*
X150652843Y-125636262D01*
X150894747Y-126271262D02*
X150894747Y-125636262D01*
X151136652Y-125636262D01*
X151197128Y-125666500D01*
X151227367Y-125696738D01*
X151257605Y-125757214D01*
X151257605Y-125847929D01*
X151227367Y-125908405D01*
X151197128Y-125938643D01*
X151136652Y-125968881D01*
X150894747Y-125968881D01*
D12*
X157175200Y-125225628D02*
X157175200Y-124935342D01*
X157349371Y-125283685D02*
X156739771Y-125080485D01*
X157349371Y-124877285D01*
X156739771Y-124557971D02*
X156739771Y-124499914D01*
X156768800Y-124441857D01*
X156797829Y-124412828D01*
X156855886Y-124383799D01*
X156972000Y-124354771D01*
X157117143Y-124354771D01*
X157233257Y-124383799D01*
X157291314Y-124412828D01*
X157320343Y-124441857D01*
X157349371Y-124499914D01*
X157349371Y-124557971D01*
X157320343Y-124616028D01*
X157291314Y-124645057D01*
X157233257Y-124674085D01*
X157117143Y-124703114D01*
X156972000Y-124703114D01*
X156855886Y-124674085D01*
X156797829Y-124645057D01*
X156768800Y-124616028D01*
X156739771Y-124557971D01*
X157200600Y-123193628D02*
X157200600Y-122903342D01*
X157374771Y-123251685D02*
X156765171Y-123048485D01*
X157374771Y-122845285D01*
X157374771Y-122322771D02*
X157374771Y-122671114D01*
X157374771Y-122496942D02*
X156765171Y-122496942D01*
X156852257Y-122554999D01*
X156910314Y-122613057D01*
X156939343Y-122671114D01*
X157149800Y-121161628D02*
X157149800Y-120871342D01*
X157323971Y-121219685D02*
X156714371Y-121016485D01*
X157323971Y-120813285D01*
X156772429Y-120639114D02*
X156743400Y-120610085D01*
X156714371Y-120552028D01*
X156714371Y-120406885D01*
X156743400Y-120348828D01*
X156772429Y-120319799D01*
X156830486Y-120290771D01*
X156888543Y-120290771D01*
X156975629Y-120319799D01*
X157323971Y-120668142D01*
X157323971Y-120290771D01*
X143208829Y-118538171D02*
X143005629Y-118247886D01*
X142860486Y-118538171D02*
X142860486Y-117928571D01*
X143092714Y-117928571D01*
X143150772Y-117957600D01*
X143179800Y-117986629D01*
X143208829Y-118044686D01*
X143208829Y-118131771D01*
X143179800Y-118189829D01*
X143150772Y-118218857D01*
X143092714Y-118247886D01*
X142860486Y-118247886D01*
X143470086Y-118218857D02*
X143673286Y-118218857D01*
X143760372Y-118538171D02*
X143470086Y-118538171D01*
X143470086Y-117928571D01*
X143760372Y-117928571D01*
X143992600Y-118509143D02*
X144079686Y-118538171D01*
X144224829Y-118538171D01*
X144282886Y-118509143D01*
X144311915Y-118480114D01*
X144340943Y-118422057D01*
X144340943Y-118364000D01*
X144311915Y-118305943D01*
X144282886Y-118276914D01*
X144224829Y-118247886D01*
X144108715Y-118218857D01*
X144050657Y-118189829D01*
X144021629Y-118160800D01*
X143992600Y-118102743D01*
X143992600Y-118044686D01*
X144021629Y-117986629D01*
X144050657Y-117957600D01*
X144108715Y-117928571D01*
X144253857Y-117928571D01*
X144340943Y-117957600D01*
X144602200Y-118218857D02*
X144805400Y-118218857D01*
X144892486Y-118538171D02*
X144602200Y-118538171D01*
X144602200Y-117928571D01*
X144892486Y-117928571D01*
X145066657Y-117928571D02*
X145415000Y-117928571D01*
X145240829Y-118538171D02*
X145240829Y-117928571D01*
D13*
X141643678Y-104189698D02*
X141643678Y-104427793D01*
X141405583Y-104332555D02*
X141643678Y-104427793D01*
X141881774Y-104332555D01*
X141500821Y-104618269D02*
X141643678Y-104427793D01*
X141786536Y-104618269D01*
X141643678Y-93420098D02*
X141643678Y-93658193D01*
X141405583Y-93562955D02*
X141643678Y-93658193D01*
X141881774Y-93562955D01*
X141500821Y-93848669D02*
X141643678Y-93658193D01*
X141786536Y-93848669D01*
D17*
X150358928Y-116462024D02*
X150449643Y-116492262D01*
X150600833Y-116492262D01*
X150661309Y-116462024D01*
X150691547Y-116431786D01*
X150721786Y-116371310D01*
X150721786Y-116310833D01*
X150691547Y-116250357D01*
X150661309Y-116220119D01*
X150600833Y-116189881D01*
X150479881Y-116159643D01*
X150419405Y-116129405D01*
X150389166Y-116099167D01*
X150358928Y-116038690D01*
X150358928Y-115978214D01*
X150389166Y-115917738D01*
X150419405Y-115887500D01*
X150479881Y-115857262D01*
X150631071Y-115857262D01*
X150721786Y-115887500D01*
X150993928Y-116492262D02*
X150993928Y-115857262D01*
X151145119Y-115857262D01*
X151235833Y-115887500D01*
X151296309Y-115947976D01*
X151326548Y-116008452D01*
X151356786Y-116129405D01*
X151356786Y-116220119D01*
X151326548Y-116341071D01*
X151296309Y-116401548D01*
X151235833Y-116462024D01*
X151145119Y-116492262D01*
X150993928Y-116492262D01*
X151598690Y-116310833D02*
X151901071Y-116310833D01*
X151538214Y-116492262D02*
X151749881Y-115857262D01*
X151961548Y-116492262D01*
X130986591Y-115862100D02*
X130926114Y-115831862D01*
X130835400Y-115831862D01*
X130744686Y-115862100D01*
X130684210Y-115922576D01*
X130653971Y-115983052D01*
X130623733Y-116104005D01*
X130623733Y-116194719D01*
X130653971Y-116315671D01*
X130684210Y-116376148D01*
X130744686Y-116436624D01*
X130835400Y-116466862D01*
X130895876Y-116466862D01*
X130986591Y-116436624D01*
X131016829Y-116406386D01*
X131016829Y-116194719D01*
X130895876Y-116194719D01*
X131288971Y-116466862D02*
X131288971Y-115831862D01*
X131651829Y-116466862D01*
X131651829Y-115831862D01*
X131954209Y-116466862D02*
X131954209Y-115831862D01*
X132105400Y-115831862D01*
X132196114Y-115862100D01*
X132256590Y-115922576D01*
X132286829Y-115983052D01*
X132317067Y-116104005D01*
X132317067Y-116194719D01*
X132286829Y-116315671D01*
X132256590Y-116376148D01*
X132196114Y-116436624D01*
X132105400Y-116466862D01*
X131954209Y-116466862D01*
X128175657Y-115755662D02*
X128568753Y-115755662D01*
X128357086Y-115997567D01*
X128447800Y-115997567D01*
X128508276Y-116027805D01*
X128538514Y-116058043D01*
X128568753Y-116118519D01*
X128568753Y-116269710D01*
X128538514Y-116330186D01*
X128508276Y-116360424D01*
X128447800Y-116390662D01*
X128266372Y-116390662D01*
X128205895Y-116360424D01*
X128175657Y-116330186D01*
X128840895Y-116330186D02*
X128871134Y-116360424D01*
X128840895Y-116390662D01*
X128810657Y-116360424D01*
X128840895Y-116330186D01*
X128840895Y-116390662D01*
X129082800Y-115755662D02*
X129475896Y-115755662D01*
X129264229Y-115997567D01*
X129354943Y-115997567D01*
X129415419Y-116027805D01*
X129445657Y-116058043D01*
X129475896Y-116118519D01*
X129475896Y-116269710D01*
X129445657Y-116330186D01*
X129415419Y-116360424D01*
X129354943Y-116390662D01*
X129173515Y-116390662D01*
X129113038Y-116360424D01*
X129082800Y-116330186D01*
X129687562Y-115967329D02*
X129838753Y-116390662D01*
X129989943Y-115967329D01*
X147818928Y-116462024D02*
X147909643Y-116492262D01*
X148060833Y-116492262D01*
X148121309Y-116462024D01*
X148151547Y-116431786D01*
X148181786Y-116371310D01*
X148181786Y-116310833D01*
X148151547Y-116250357D01*
X148121309Y-116220119D01*
X148060833Y-116189881D01*
X147939881Y-116159643D01*
X147879405Y-116129405D01*
X147849166Y-116099167D01*
X147818928Y-116038690D01*
X147818928Y-115978214D01*
X147849166Y-115917738D01*
X147879405Y-115887500D01*
X147939881Y-115857262D01*
X148091071Y-115857262D01*
X148181786Y-115887500D01*
X148453928Y-116492262D02*
X148453928Y-115857262D01*
X148605119Y-115857262D01*
X148695833Y-115887500D01*
X148756309Y-115947976D01*
X148786548Y-116008452D01*
X148816786Y-116129405D01*
X148816786Y-116220119D01*
X148786548Y-116341071D01*
X148756309Y-116401548D01*
X148695833Y-116462024D01*
X148605119Y-116492262D01*
X148453928Y-116492262D01*
X149058690Y-116310833D02*
X149361071Y-116310833D01*
X148998214Y-116492262D02*
X149209881Y-115857262D01*
X149421548Y-116492262D01*
M02*
