M48
;DRILL file {KiCad 4.0.2-stable} date Monday, September 10, 2018 'AMt' 09:19:26 AM
;FORMAT={2:4/ absolute / inch / suppress leading zeros}
FMAT,2
INCH,TZ
T1C0.016
T2C0.035
%
G90
G05
M72
T1
X52230Y-46250
X55060Y-36360
X56400Y-36660
X56420Y-40700
X56580Y-36380
X56590Y-44150
X56595Y-39907
X56875Y-41825
X56900Y-39925
X57200Y-41398
X57350Y-46970
X57350Y-47675
X57550Y-40200
X57550Y-41500
X57890Y-46860
X57890Y-47480
X57900Y-36660
X57910Y-41848
X58040Y-41030
X58040Y-36380
X58250Y-40200
X58325Y-49375
X58813Y-41119
X58920Y-41640
X59020Y-36940
X59020Y-37610
X59325Y-36850
X59420Y-40700
X60344Y-47506
T2
X52050Y-37000
X52050Y-38000
X52050Y-39000
X52050Y-40000
X52050Y-41500
X52050Y-42500
X52050Y-43500
X52050Y-44500
X52500Y-48000
X52500Y-49000
X53050Y-37000
X53050Y-38000
X53050Y-39000
X53050Y-40000
X53050Y-41500
X53050Y-42500
X53050Y-43500
X53050Y-44500
X53500Y-48000
X53500Y-49000
X54050Y-37000
X54050Y-38000
X54050Y-39000
X54050Y-40000
X54050Y-41500
X54050Y-42500
X54050Y-43500
X54050Y-44500
X54500Y-48000
X54500Y-49000
X55250Y-46000
X55500Y-48000
X55500Y-49000
X56500Y-48000
X56500Y-49000
X60700Y-37000
X60700Y-38000
X60700Y-39000
X60700Y-40000
X60700Y-41500
X60700Y-42500
X60700Y-43500
X60700Y-44500
X61700Y-37000
X61700Y-38000
X61700Y-39000
X61700Y-40000
X61700Y-41500
X61700Y-42500
X61700Y-43500
X61700Y-44500
X62700Y-37000
X62700Y-38000
X62700Y-39000
X62700Y-40000
X62700Y-41500
X62700Y-42500
X62700Y-43500
X62700Y-44500
T0
M30
