G04 #@! TF.FileFunction,Copper,L1,Top,Signal*
%FSLAX46Y46*%
G04 Gerber Fmt 4.6, Leading zero omitted, Abs format (unit mm)*
G04 Created by KiCad (PCBNEW 4.0.2-stable) date Monday, July 02, 2018 'PMt' 02:51:23 PM*
%MOMM*%
G01*
G04 APERTURE LIST*
%ADD10C,0.025400*%
%ADD11R,0.500000X0.600000*%
%ADD12R,1.450000X1.450000*%
%ADD13C,1.450000*%
%ADD14C,1.445000*%
%ADD15C,1.016000*%
%ADD16R,1.450000X0.450000*%
%ADD17R,0.635000X1.270000*%
%ADD18C,0.600000*%
%ADD19C,0.250000*%
G04 APERTURE END LIST*
D10*
D11*
X145110200Y-124341800D03*
X145110200Y-125441800D03*
D12*
X129540000Y-124460000D03*
D13*
X129540000Y-121920000D03*
X132080000Y-124460000D03*
X132080000Y-121920000D03*
X134620000Y-124460000D03*
D14*
X134620000Y-121920000D03*
D13*
X137160000Y-124460000D03*
X137160000Y-121920000D03*
X139700000Y-124460000D03*
X139700000Y-121920000D03*
D11*
X149885400Y-125543400D03*
X149885400Y-124443400D03*
X148640800Y-125543400D03*
X148640800Y-124443400D03*
D15*
X146888200Y-124866400D03*
D16*
X151006600Y-122615600D03*
X151006600Y-121965600D03*
X151006600Y-121315600D03*
X151006600Y-120665600D03*
X145106600Y-120665600D03*
X145106600Y-121315600D03*
X145106600Y-121965600D03*
X145106600Y-122615600D03*
D15*
X128016000Y-120650000D03*
X128016000Y-125984000D03*
X151892000Y-125476000D03*
D17*
X155321000Y-124790200D03*
X154508200Y-124790200D03*
X155321000Y-122758200D03*
X154508200Y-122758200D03*
X155321000Y-120675400D03*
X154508200Y-120675400D03*
D18*
X144145000Y-125917790D03*
X149463400Y-120665600D03*
D19*
X155321000Y-120675400D02*
X155321000Y-122758200D01*
X155321000Y-124790200D02*
X155321000Y-122758200D01*
X155321000Y-125882400D02*
X155321000Y-124790200D01*
X148615400Y-126542800D02*
X149910800Y-126542800D01*
X149910800Y-126542800D02*
X154660600Y-126542800D01*
X149885400Y-125543400D02*
X149885400Y-126517400D01*
X149885400Y-126517400D02*
X149910800Y-126542800D01*
X143535400Y-126542800D02*
X148615400Y-126542800D01*
X148640800Y-125543400D02*
X148640800Y-126517400D01*
X148640800Y-126517400D02*
X148615400Y-126542800D01*
X142595600Y-123190000D02*
X142595600Y-125603000D01*
X142595600Y-125603000D02*
X143535400Y-126542800D01*
X154660600Y-126542800D02*
X155321000Y-125882400D01*
X134620000Y-124460000D02*
X135890000Y-123190000D01*
X135890000Y-123190000D02*
X142595600Y-123190000D01*
X142595600Y-123190000D02*
X143170000Y-122615600D01*
X143170000Y-122615600D02*
X145106600Y-122615600D01*
X145106600Y-122615600D02*
X145106600Y-124338200D01*
X145106600Y-124338200D02*
X145110200Y-124341800D01*
X144145000Y-125907000D02*
X144145000Y-125917790D01*
X144610200Y-125441800D02*
X144145000Y-125907000D01*
X145110200Y-125441800D02*
X144610200Y-125441800D01*
X151006600Y-120665600D02*
X149463400Y-120665600D01*
X145106600Y-120665600D02*
X147081600Y-120665600D01*
X147081600Y-120665600D02*
X149885400Y-123469400D01*
X149885400Y-123469400D02*
X149885400Y-124443400D01*
X132080000Y-124460000D02*
X130810000Y-123190000D01*
X130810000Y-123190000D02*
X130810000Y-121158000D01*
X130810000Y-121158000D02*
X132003800Y-119964200D01*
X132003800Y-119964200D02*
X143430200Y-119964200D01*
X143430200Y-119964200D02*
X144131600Y-120665600D01*
X144131600Y-120665600D02*
X145106600Y-120665600D01*
X145106600Y-121315600D02*
X146461600Y-121315600D01*
X146461600Y-121315600D02*
X148640800Y-123494800D01*
X148640800Y-123494800D02*
X148640800Y-124443400D01*
X145106600Y-121315600D02*
X144131600Y-121315600D01*
X144131600Y-121315600D02*
X143440600Y-120624600D01*
X143440600Y-120624600D02*
X133375400Y-120624600D01*
X133375400Y-120624600D02*
X132080000Y-121920000D01*
X151006600Y-122615600D02*
X152511400Y-122615600D01*
X152511400Y-122615600D02*
X154508200Y-124612400D01*
X154508200Y-124612400D02*
X154508200Y-124637800D01*
X154508200Y-124637800D02*
X154508200Y-124790200D01*
X151006600Y-121965600D02*
X153715600Y-121965600D01*
X153873200Y-121970800D02*
X154508200Y-122605800D01*
X153715600Y-121965600D02*
X153720800Y-121970800D01*
X153720800Y-121970800D02*
X153873200Y-121970800D01*
X154508200Y-122605800D02*
X154508200Y-122758200D01*
X151006600Y-121315600D02*
X153868000Y-121315600D01*
X153868000Y-121315600D02*
X154508200Y-120675400D01*
X145106600Y-121965600D02*
X146081600Y-121965600D01*
X146081600Y-121965600D02*
X146888200Y-122772200D01*
X146888200Y-122772200D02*
X146888200Y-124147980D01*
X146888200Y-124147980D02*
X146888200Y-124866400D01*
M02*
