G04 #@! TF.FileFunction,Paste,Top*
%FSLAX46Y46*%
G04 Gerber Fmt 4.6, Leading zero omitted, Abs format (unit mm)*
G04 Created by KiCad (PCBNEW 4.0.2-stable) date Monday, September 10, 2018 'AMt' 09:19:22 AM*
%MOMM*%
G01*
G04 APERTURE LIST*
%ADD10C,0.025400*%
%ADD11R,1.399200X0.399200*%
%ADD12R,1.422400X0.304800*%
%ADD13R,0.449200X0.549200*%
%ADD14R,0.549200X0.449200*%
G04 APERTURE END LIST*
D10*
D11*
X154816600Y-122615600D03*
X154816600Y-121965600D03*
X154816600Y-121315600D03*
X154816600Y-120665600D03*
X148916600Y-120665600D03*
X148916600Y-121315600D03*
X148916600Y-121965600D03*
X148916600Y-122615600D03*
D12*
X142494000Y-104978200D03*
X142494000Y-105638600D03*
X142494000Y-106273600D03*
X142494000Y-106934000D03*
X142494000Y-107594400D03*
X142494000Y-108229400D03*
X142494000Y-108889800D03*
X142494000Y-109524800D03*
X142494000Y-110185200D03*
X142494000Y-110845600D03*
X142494000Y-111480600D03*
X142494000Y-112141000D03*
X148336000Y-112141000D03*
X148336000Y-111480600D03*
X148336000Y-110845600D03*
X148336000Y-110185200D03*
X148336000Y-109524800D03*
X148336000Y-108889800D03*
X148336000Y-108229400D03*
X148336000Y-107594400D03*
X148336000Y-106934000D03*
X148336000Y-106273600D03*
X148336000Y-105638600D03*
X148336000Y-104978200D03*
X142494000Y-94208600D03*
X142494000Y-94869000D03*
X142494000Y-95504000D03*
X142494000Y-96164400D03*
X142494000Y-96824800D03*
X142494000Y-97459800D03*
X142494000Y-98120200D03*
X142494000Y-98755200D03*
X142494000Y-99415600D03*
X142494000Y-100076000D03*
X142494000Y-100711000D03*
X142494000Y-101371400D03*
X148336000Y-101371400D03*
X148336000Y-100711000D03*
X148336000Y-100076000D03*
X148336000Y-99415600D03*
X148336000Y-98755200D03*
X148336000Y-98120200D03*
X148336000Y-97459800D03*
X148336000Y-96824800D03*
X148336000Y-96164400D03*
X148336000Y-95504000D03*
X148336000Y-94869000D03*
X148336000Y-94208600D03*
D13*
X148920200Y-124341800D03*
X148920200Y-125441800D03*
D14*
X128482000Y-104648000D03*
X129582000Y-104648000D03*
X128355000Y-93218000D03*
X129455000Y-93218000D03*
X128482000Y-105918000D03*
X129582000Y-105918000D03*
X128355000Y-94488000D03*
X129455000Y-94488000D03*
X128482000Y-107188000D03*
X129582000Y-107188000D03*
X128355000Y-95758000D03*
X129455000Y-95758000D03*
X128482000Y-108458000D03*
X129582000Y-108458000D03*
X128355000Y-97028000D03*
X129455000Y-97028000D03*
X128482000Y-109728000D03*
X129582000Y-109728000D03*
X128355000Y-98298000D03*
X129455000Y-98298000D03*
X128482000Y-110998000D03*
X129582000Y-110998000D03*
X128355000Y-99568000D03*
X129455000Y-99568000D03*
X128482000Y-112268000D03*
X129582000Y-112268000D03*
X128355000Y-100838000D03*
X129455000Y-100838000D03*
X128482000Y-113538000D03*
X129582000Y-113538000D03*
X128355000Y-102108000D03*
X129455000Y-102108000D03*
X162856000Y-113792000D03*
X161756000Y-113792000D03*
X162856000Y-102235000D03*
X161756000Y-102235000D03*
X162856000Y-112522000D03*
X161756000Y-112522000D03*
X162856000Y-100965000D03*
X161756000Y-100965000D03*
X162856000Y-111252000D03*
X161756000Y-111252000D03*
X162856000Y-99695000D03*
X161756000Y-99695000D03*
X162856000Y-109982000D03*
X161756000Y-109982000D03*
X162856000Y-98425000D03*
X161756000Y-98425000D03*
X162856000Y-108585000D03*
X161756000Y-108585000D03*
X162856000Y-97155000D03*
X161756000Y-97155000D03*
X162856000Y-107315000D03*
X161756000Y-107315000D03*
X162856000Y-95885000D03*
X161756000Y-95885000D03*
X162856000Y-106045000D03*
X161756000Y-106045000D03*
X162856000Y-94615000D03*
X161756000Y-94615000D03*
X162856000Y-104775000D03*
X161756000Y-104775000D03*
X162856000Y-93345000D03*
X161756000Y-93345000D03*
D13*
X153695400Y-125543400D03*
X153695400Y-124443400D03*
X152450800Y-125543400D03*
X152450800Y-124443400D03*
D14*
X149894200Y-94615000D03*
X150994200Y-94615000D03*
X150072000Y-104965500D03*
X151172000Y-104965500D03*
M02*
